<svg width="64" height="68" viewBox="0 0 64 68" fill="none" xmlns="http://www.w3.org/2000/svg">
<g id="Vector" filter="url(#filter0_d_911_132)">
<path d="M26.7422 59.3478C23.557 59.3478 20.8417 57.0384 20.3304 53.8945L20.1729 52.9258C19.8807 51.1285 18.6095 49.6286 17.0184 48.7433C16.9582 48.7098 16.898 48.6761 16.8378 48.6422C14.8291 47.509 12.4064 47.2409 10.3044 48.1896C7.22667 49.5788 3.59727 48.4025 1.91946 45.4722L0.871514 43.6419C-0.76049 40.7916 0.024302 37.169 2.68961 35.2496L4.90277 33.6558C5.64797 33.1192 5.9839 32.1876 5.94174 31.2703C5.9164 30.7191 5.90374 30.1932 5.90374 29.6927C5.90374 29.2673 5.9164 28.7605 5.94174 28.1724C5.98485 27.1715 5.60927 26.1632 4.79635 25.5778L2.74012 24.0971C0.0470476 22.1577 -0.743606 18.4961 0.909291 15.6182L1.99492 13.7281C3.63037 10.8807 7.16024 9.7399 10.1528 11.0917L10.7375 11.3558C12.5939 12.1944 14.7543 11.8753 16.5244 10.8673C18.3763 9.81268 19.9109 8.13003 20.249 6.02589L20.3366 5.48098C20.844 2.32259 23.5696 0 26.7685 0H29.1771C32.4088 0 35.1638 2.34319 35.6825 5.533L35.755 5.97847C36.0932 8.05859 37.5492 9.76489 39.3996 10.7735C41.2187 11.7649 43.4185 12.174 45.3078 11.3242L45.9581 11.0317C48.889 9.71338 52.3419 10.8323 53.9425 13.619L55.0123 15.4817C56.7043 18.4275 55.8701 22.1775 53.089 24.1284L51.0657 25.5476C50.2624 26.111 49.8592 27.0808 49.9253 28.0598C49.9633 28.6228 49.9823 29.1672 49.9823 29.6927C49.9823 30.2182 49.9633 30.7544 49.9253 31.3012C49.859 32.2546 50.2491 33.2002 51.0307 33.7501L53.0836 35.1945C55.8483 37.1396 56.6778 40.8696 54.9982 43.8032L53.9423 45.6473C52.3215 48.4781 48.815 49.6139 45.8423 48.2711L45.1831 47.9733C43.3568 47.1483 41.2328 47.4813 39.5147 48.513C37.6443 49.6361 36.0836 51.3482 35.7335 53.5016L35.6724 53.8772C35.1595 57.0311 32.4356 59.3478 29.2403 59.3478H26.7422ZM24.2514 51.7378C24.4869 53.6192 26.0864 55.0309 27.9824 55.0309C29.8702 55.0309 31.4653 53.6312 31.7106 51.7595L31.9037 50.2865C32.1962 48.0551 33.8694 46.3066 35.9011 45.3388C36.2846 45.1561 36.6613 44.9597 37.0312 44.7498C37.3915 44.5452 37.7446 44.3285 38.0904 44.0997C39.9967 42.8382 42.392 42.299 44.4909 43.2043L46.2763 43.9744C47.8858 44.6687 49.7598 44.0349 50.6176 42.5062C51.4683 40.9902 51.0477 39.0772 49.6395 38.0578L46.9845 36.136C45.7336 35.2305 45.142 33.6765 45.4034 32.1545C45.5428 31.3432 45.6124 30.5196 45.6124 29.6838C45.6124 28.8388 45.5617 28.016 45.4604 27.2152C45.2696 25.7071 45.751 24.14 46.9808 23.2466L49.6608 21.2994C51.0599 20.2829 51.4827 18.3834 50.6468 16.8694C49.7951 15.327 47.9128 14.6814 46.2938 15.3765L44.5937 16.1064C42.4514 17.0261 40.0066 16.4108 38.0918 15.0809C37.776 14.8615 37.452 14.652 37.1197 14.4522C36.7984 14.259 36.4712 14.081 36.1381 13.9182C34.0464 12.8958 32.1875 11.1649 31.8966 8.85495L31.7419 7.62709C31.5036 5.73555 29.895 4.31689 27.9885 4.31689C26.0756 4.31689 24.4637 5.74489 24.2331 7.64386L24.0696 8.99036C23.7954 11.2479 22.0699 12.9913 19.999 13.9308C19.5944 14.1144 19.2025 14.3132 18.8233 14.5273C18.4685 14.7276 18.12 14.9427 17.7779 15.1727C15.8731 16.4534 13.4717 17.0335 11.3673 16.1172L9.68751 15.3858C8.07673 14.6844 6.19638 15.3126 5.33065 16.8413C4.46755 18.3654 4.89049 20.2949 6.31198 21.3183L8.85787 23.151C10.1298 24.0666 10.7037 25.6529 10.4636 27.2016C10.3369 28.0184 10.2736 28.8355 10.2736 29.6529C10.2736 30.5053 10.3306 31.3381 10.4446 32.1514C10.6615 33.6991 10.0965 35.2809 8.8305 36.1972L6.30387 38.0258C4.88553 39.0523 4.46398 40.9801 5.32444 42.505C6.18826 44.0357 8.06679 44.6695 9.68141 43.975L11.4302 43.2227C13.5104 42.3279 15.8819 42.8563 17.7716 44.1042C18.1461 44.3515 18.5284 44.5841 18.9183 44.8018C19.3037 45.017 19.6967 45.2178 20.0973 45.4041C22.1293 46.3493 23.7955 48.0951 24.0738 50.3189L24.2514 51.7378ZM27.9226 39.2649C30.5979 39.2649 32.8788 38.3321 34.7651 36.4664C36.6515 34.6007 37.5947 32.3422 37.5947 29.6908C37.5947 27.0394 36.6506 24.7814 34.7624 22.917C32.8742 21.0527 30.5884 20.1205 27.905 20.1205C25.1944 20.1205 22.9018 21.0533 21.0272 22.9189C19.1526 24.7846 18.2153 27.0432 18.2153 29.6946C18.2153 32.346 19.1526 34.6039 21.0272 36.4683C22.9018 38.3327 25.2003 39.2649 27.9226 39.2649Z" fill="#EF4444"/>
</g>
<defs>
<filter id="filter0_d_911_132" x="0.0229492" y="0" width="63.8623" height="67.3477" filterUnits="userSpaceOnUse" color-interpolation-filters="sRGB">
<feFlood flood-opacity="0" result="BackgroundImageFix"/>
<feColorMatrix in="SourceAlpha" type="matrix" values="0 0 0 0 0 0 0 0 0 0 0 0 0 0 0 0 0 0 127 0" result="hardAlpha"/>
<feOffset dx="4" dy="4"/>
<feGaussianBlur stdDeviation="2"/>
<feComposite in2="hardAlpha" operator="out"/>
<feColorMatrix type="matrix" values="0 0 0 0 0 0 0 0 0 0 0 0 0 0 0 0 0 0 0.25 0"/>
<feBlend mode="normal" in2="BackgroundImageFix" result="effect1_dropShadow_911_132"/>
<feBlend mode="normal" in="SourceGraphic" in2="effect1_dropShadow_911_132" result="shape"/>
</filter>
</defs>
</svg>
