<svg width="77" height="76" viewBox="0 0 77 76" fill="none" xmlns="http://www.w3.org/2000/svg">
<g id="Group 8">
<g id="Rectangle 84" filter="url(#filter0_d_901_123)">
<path d="M0 20C0 8.9543 8.9543 0 20 0H49C60.0457 0 69 8.9543 69 20V49C69 60.0457 60.0457 69 49 69H20C8.9543 69 0 60.0457 0 49V20Z" fill="#D9D9D9" fill-opacity="0.12" shape-rendering="crispEdges"/>
</g>
<g id="home" filter="url(#filter1_d_901_123)">
<path d="M17.7894 51.9217C17.7894 53.0263 18.6848 53.9217 19.7894 53.9217H24.4735C25.578 53.9217 26.4735 53.0263 26.4735 51.9217V38.7011C26.4735 37.5965 27.3689 36.7011 28.4735 36.7011H41.8416C42.9462 36.7011 43.8416 37.5965 43.8416 38.7011V51.9217C43.8416 53.0263 44.737 53.9217 45.8416 53.9217H50.5257C51.6303 53.9217 52.5257 53.0263 52.5257 51.9217V29.0959C52.5257 28.4635 52.2266 27.8683 51.7191 27.491L36.351 16.0627C35.6426 15.5359 34.6725 15.5359 33.9641 16.0627L18.5959 27.491C18.0885 27.8683 17.7894 28.4635 17.7894 29.0959V51.9217ZM14 59.6619C12.8954 59.6619 12 58.7665 12 57.6619V26.2257C12 25.5934 12.2991 24.9982 12.8066 24.6209L33.9641 8.88748C34.6725 8.36067 35.6426 8.36067 36.351 8.88748L57.5085 24.6209C58.016 24.9982 58.3151 25.5934 58.3151 26.2257V57.6619C58.3151 58.7665 57.4196 59.6619 56.3151 59.6619H40.0522C38.9477 59.6619 38.0522 58.7665 38.0522 57.6619V44.4413C38.0522 43.3367 37.1568 42.4413 36.0522 42.4413H34.2628C33.1583 42.4413 32.2628 43.3367 32.2628 44.4413V57.6619C32.2628 58.7665 31.3674 59.6619 30.2628 59.6619H14Z" fill="#EF4444"/>
</g>
</g>
<defs>
<filter id="filter0_d_901_123" x="0" y="0" width="77" height="77" filterUnits="userSpaceOnUse" color-interpolation-filters="sRGB">
<feFlood flood-opacity="0" result="BackgroundImageFix"/>
<feColorMatrix in="SourceAlpha" type="matrix" values="0 0 0 0 0 0 0 0 0 0 0 0 0 0 0 0 0 0 127 0" result="hardAlpha"/>
<feOffset dx="4" dy="4"/>
<feGaussianBlur stdDeviation="2"/>
<feComposite in2="hardAlpha" operator="out"/>
<feColorMatrix type="matrix" values="0 0 0 0 0 0 0 0 0 0 0 0 0 0 0 0 0 0 0.25 0"/>
<feBlend mode="normal" in2="BackgroundImageFix" result="effect1_dropShadow_901_123"/>
<feBlend mode="normal" in="SourceGraphic" in2="effect1_dropShadow_901_123" result="shape"/>
</filter>
<filter id="filter1_d_901_123" x="12" y="8.49219" width="54.3149" height="59.1699" filterUnits="userSpaceOnUse" color-interpolation-filters="sRGB">
<feFlood flood-opacity="0" result="BackgroundImageFix"/>
<feColorMatrix in="SourceAlpha" type="matrix" values="0 0 0 0 0 0 0 0 0 0 0 0 0 0 0 0 0 0 127 0" result="hardAlpha"/>
<feOffset dx="4" dy="4"/>
<feGaussianBlur stdDeviation="2"/>
<feComposite in2="hardAlpha" operator="out"/>
<feColorMatrix type="matrix" values="0 0 0 0 0 0 0 0 0 0 0 0 0 0 0 0 0 0 0.25 0"/>
<feBlend mode="normal" in2="BackgroundImageFix" result="effect1_dropShadow_901_123"/>
<feBlend mode="normal" in="SourceGraphic" in2="effect1_dropShadow_901_123" result="shape"/>
</filter>
</defs>
</svg>
