<svg width="55" height="60" viewBox="0 0 55 60" fill="none" xmlns="http://www.w3.org/2000/svg">
<g filter="url(#filter0_d_901_125)">
<path d="M5.78938 43.9217C5.78938 45.0263 6.68481 45.9217 7.78938 45.9217H12.4735C13.578 45.9217 14.4735 45.0263 14.4735 43.9217V30.7011C14.4735 29.5965 15.3689 28.7011 16.4735 28.7011H29.8416C30.9462 28.7011 31.8416 29.5965 31.8416 30.7011V43.9217C31.8416 45.0263 32.737 45.9217 33.8416 45.9217H38.5257C39.6303 45.9217 40.5257 45.0263 40.5257 43.9217V21.0959C40.5257 20.4635 40.2266 19.8683 39.7191 19.491L24.351 8.06275C23.6426 7.53594 22.6725 7.53594 21.9641 8.06275L6.59594 19.491C6.08847 19.8683 5.78938 20.4635 5.78938 21.0959V43.9217ZM2 51.6619C0.895433 51.6619 0 50.7665 0 49.6619V18.2257C0 17.5934 0.299091 16.9982 0.806553 16.6209L21.9641 0.887483C22.6725 0.360675 23.6426 0.360675 24.351 0.887483L45.5085 16.6209C46.016 16.9982 46.3151 17.5934 46.3151 18.2257V49.6619C46.3151 50.7665 45.4196 51.6619 44.3151 51.6619H28.0522C26.9477 51.6619 26.0522 50.7665 26.0522 49.6619V36.4413C26.0522 35.3367 25.1568 34.4413 24.0522 34.4413H22.2628C21.1583 34.4413 20.2628 35.3367 20.2628 36.4413V49.6619C20.2628 50.7665 19.3674 51.6619 18.2628 51.6619H2Z" fill="#EF4444"/>
</g>
<defs>
<filter id="filter0_d_901_125" x="0" y="0.492188" width="54.3149" height="59.1699" filterUnits="userSpaceOnUse" color-interpolation-filters="sRGB">
<feFlood flood-opacity="0" result="BackgroundImageFix"/>
<feColorMatrix in="SourceAlpha" type="matrix" values="0 0 0 0 0 0 0 0 0 0 0 0 0 0 0 0 0 0 127 0" result="hardAlpha"/>
<feOffset dx="4" dy="4"/>
<feGaussianBlur stdDeviation="2"/>
<feComposite in2="hardAlpha" operator="out"/>
<feColorMatrix type="matrix" values="0 0 0 0 0 0 0 0 0 0 0 0 0 0 0 0 0 0 0.25 0"/>
<feBlend mode="normal" in2="BackgroundImageFix" result="effect1_dropShadow_901_125"/>
<feBlend mode="normal" in="SourceGraphic" in2="effect1_dropShadow_901_125" result="shape"/>
</filter>
</defs>
</svg>
