<svg width="40" height="40" viewBox="0 0 40 40" fill="none" xmlns="http://www.w3.org/2000/svg">
<path id="Vector" d="M36.0312 8.57143H6.25C5.5625 8.57143 5 7.92857 5 7.14286C5 6.35714 5.5625 5.71429 6.25 5.71429H36.25C36.9375 5.71429 37.5 5.07143 37.5 4.28571C37.5 1.91964 35.8203 0 33.75 0H5C2.24219 0 0 2.5625 0 5.71429V34.2857C0 37.4464 2.24219 40 5 40H36.0312C38.2188 40 40 38.0804 40 35.7143V12.8571C40 10.4911 38.2188 8.57143 36.0312 8.57143ZM32.5 27.1429C31.1172 27.1429 30 25.8661 30 24.2857C30 22.7054 31.1172 21.4286 32.5 21.4286C33.8828 21.4286 35 22.7054 35 24.2857C35 25.8661 33.8828 27.1429 32.5 27.1429Z" fill="white"/>
</svg>
