<svg width="206" height="43" viewBox="0 0 206 43" fill="none" xmlns="http://www.w3.org/2000/svg">
<g filter="url(#filter0_d_273_4)">
<path d="M2.66 15H5.9V26.36H12.92V29H2.66V15ZM27.0745 15V29H23.9345V27.3C22.9745 28.5933 21.5612 29.24 19.6945 29.24C18.0412 29.24 16.7479 28.72 15.8145 27.68C14.8945 26.6267 14.4345 25.1333 14.4345 23.2V15H17.6745V23.1C17.6745 24.22 17.9345 25.0667 18.4545 25.64C18.9879 26.2 19.7079 26.48 20.6145 26.48C21.5879 26.48 22.3679 26.18 22.9545 25.58C23.5412 24.9667 23.8345 24.0667 23.8345 22.88V15H27.0745ZM37.0944 29.24C35.6677 29.24 34.3744 28.9333 33.2144 28.32C32.0677 27.6933 31.161 26.8333 30.4944 25.74C29.841 24.6333 29.5144 23.3867 29.5144 22C29.5144 20.6133 29.841 19.3733 30.4944 18.28C31.161 17.1733 32.0677 16.3133 33.2144 15.7C34.3744 15.0733 35.6744 14.76 37.1144 14.76C38.3277 14.76 39.421 14.9733 40.3944 15.4C41.381 15.8267 42.2077 16.44 42.8744 17.24L40.7944 19.16C39.8477 18.0667 38.6744 17.52 37.2744 17.52C36.4077 17.52 35.6344 17.7133 34.9544 18.1C34.2744 18.4733 33.741 19 33.3544 19.68C32.981 20.36 32.7944 21.1333 32.7944 22C32.7944 22.8667 32.981 23.64 33.3544 24.32C33.741 25 34.2744 25.5333 34.9544 25.92C35.6344 26.2933 36.4077 26.48 37.2744 26.48C38.6744 26.48 39.8477 25.9267 40.7944 24.82L42.8744 26.74C42.2077 27.5533 41.381 28.1733 40.3944 28.6C39.4077 29.0267 38.3077 29.24 37.0944 29.24ZM50.1623 23.5L48.2823 25.46V29H45.0623V15H48.2823V21.54L54.4823 15H58.0823L52.2823 21.24L58.4223 29H54.6423L50.1623 23.5ZM71.8788 15V24.62C71.8788 26.7267 71.2921 28.34 70.1188 29.46C68.9454 30.5933 67.3254 31.16 65.2588 31.16C64.0721 31.16 62.9854 30.9933 61.9988 30.66C61.0121 30.34 60.1721 29.88 59.4788 29.28L60.7388 26.88C62.0054 27.9067 63.4854 28.42 65.1788 28.42C66.3521 28.42 67.2188 28.1267 67.7788 27.54C68.3521 26.94 68.6388 26.02 68.6388 24.78V23.92C67.7054 25.0667 66.3854 25.64 64.6788 25.64C62.9054 25.64 61.5388 25.14 60.5788 24.14C59.6321 23.1267 59.1588 21.6733 59.1588 19.78V15H62.3988V19.58C62.3988 20.6733 62.6588 21.5 63.1788 22.06C63.6988 22.62 64.4321 22.9 65.3788 22.9C66.3788 22.9 67.1721 22.6067 67.7588 22.02C68.3454 21.4333 68.6388 20.5467 68.6388 19.36V15H71.8788ZM80.7459 15H87.1059C88.6259 15 89.9659 15.2933 91.1259 15.88C92.2993 16.4533 93.2059 17.2667 93.8459 18.32C94.4993 19.3733 94.8259 20.6 94.8259 22C94.8259 23.4 94.4993 24.6267 93.8459 25.68C93.2059 26.7333 92.2993 27.5533 91.1259 28.14C89.9659 28.7133 88.6259 29 87.1059 29H80.7459V15ZM86.9459 26.34C88.3459 26.34 89.4593 25.9533 90.2859 25.18C91.1259 24.3933 91.5459 23.3333 91.5459 22C91.5459 20.6667 91.1259 19.6133 90.2859 18.84C89.4593 18.0533 88.3459 17.66 86.9459 17.66H83.9859V26.34H86.9459ZM101.972 17.6V26.4H104.392V29H96.2917V26.4H98.7317V17.6H96.2917V15H104.392V17.6H101.972ZM113.14 14.76C114.433 14.76 115.56 15.0133 116.52 15.52C117.48 16.0267 118.226 16.7733 118.76 17.76C119.293 18.7467 119.56 19.94 119.56 21.34V29H116.32V25.64H109.92V29H106.72V21.34C106.72 19.94 106.986 18.7467 107.52 17.76C108.053 16.7733 108.8 16.0267 109.76 15.52C110.72 15.0133 111.846 14.76 113.14 14.76ZM116.32 23.04V21.04C116.32 19.88 116.033 19.0067 115.46 18.42C114.886 17.82 114.106 17.52 113.12 17.52C112.12 17.52 111.333 17.82 110.76 18.42C110.2 19.0067 109.92 19.88 109.92 21.04V23.04H116.32ZM138.738 14.76C140.391 14.76 141.678 15.2467 142.598 16.22C143.518 17.18 143.978 18.5733 143.978 20.4V29H140.738V20.5C140.738 19.5133 140.478 18.7733 139.958 18.28C139.451 17.7733 138.778 17.52 137.938 17.52C137.018 17.52 136.284 17.7867 135.738 18.32C135.191 18.84 134.918 19.6333 134.918 20.7V29H131.678V20.5C131.678 19.5133 131.438 18.7733 130.958 18.28C130.478 17.7733 129.824 17.52 128.998 17.52C128.091 17.52 127.364 17.7867 126.818 18.32C126.271 18.84 125.998 19.6333 125.998 20.7V29H122.758V15H125.898V16.72C126.324 16.0933 126.891 15.6133 127.598 15.28C128.304 14.9333 129.118 14.76 130.038 14.76C130.998 14.76 131.838 14.94 132.558 15.3C133.278 15.6467 133.831 16.1533 134.218 16.82C134.698 16.1533 135.324 15.6467 136.098 15.3C136.884 14.94 137.764 14.76 138.738 14.76ZM153.952 29.24C152.498 29.24 151.185 28.9267 150.012 28.3C148.852 27.6733 147.938 26.8133 147.272 25.72C146.618 24.6133 146.292 23.3733 146.292 22C146.292 20.6267 146.618 19.3933 147.272 18.3C147.938 17.1933 148.852 16.3267 150.012 15.7C151.185 15.0733 152.498 14.76 153.952 14.76C155.405 14.76 156.712 15.0733 157.872 15.7C159.032 16.3267 159.945 17.1933 160.612 18.3C161.278 19.3933 161.612 20.6267 161.612 22C161.612 23.3733 161.278 24.6133 160.612 25.72C159.945 26.8133 159.032 27.6733 157.872 28.3C156.712 28.9267 155.405 29.24 153.952 29.24ZM153.952 26.48C154.778 26.48 155.525 26.2933 156.192 25.92C156.858 25.5333 157.378 25 157.752 24.32C158.138 23.64 158.332 22.8667 158.332 22C158.332 21.1333 158.138 20.36 157.752 19.68C157.378 19 156.858 18.4733 156.192 18.1C155.525 17.7133 154.778 17.52 153.952 17.52C153.125 17.52 152.378 17.7133 151.712 18.1C151.045 18.4733 150.518 19 150.132 19.68C149.758 20.36 149.572 21.1333 149.572 22C149.572 22.8667 149.758 23.64 150.132 24.32C150.518 25 151.045 25.5333 151.712 25.92C152.378 26.2933 153.125 26.48 153.952 26.48ZM171.467 14.76C173.133 14.76 174.433 15.2867 175.367 16.34C176.3 17.38 176.767 18.8667 176.767 20.8V29H173.527V20.9C173.527 19.78 173.26 18.94 172.727 18.38C172.207 17.8067 171.48 17.52 170.547 17.52C169.56 17.52 168.767 17.8267 168.167 18.44C167.58 19.04 167.287 19.9333 167.287 21.12V29H164.047V15H167.187V16.7C167.667 16.06 168.267 15.58 168.987 15.26C169.707 14.9267 170.533 14.76 171.467 14.76ZM179.965 15H186.325C187.845 15 189.185 15.2933 190.345 15.88C191.518 16.4533 192.425 17.2667 193.065 18.32C193.718 19.3733 194.045 20.6 194.045 22C194.045 23.4 193.718 24.6267 193.065 25.68C192.425 26.7333 191.518 27.5533 190.345 28.14C189.185 28.7133 187.845 29 186.325 29H179.965V15ZM186.165 26.34C187.565 26.34 188.678 25.9533 189.505 25.18C190.345 24.3933 190.765 23.3333 190.765 22C190.765 20.6667 190.345 19.6133 189.505 18.84C188.678 18.0533 187.565 17.66 186.165 17.66H183.205V26.34H186.165Z" fill="white"/>
</g>
<g filter="url(#filter1_d_273_4)">
<path d="M4.9 3C5.53333 3 6.08333 3.10667 6.55 3.32C7.01667 3.52667 7.37667 3.82667 7.63 4.22C7.88333 4.60667 8.01 5.06333 8.01 5.59C8.01 6.11667 7.88333 6.57333 7.63 6.96C7.37667 7.34667 7.01667 7.64667 6.55 7.86C6.08333 8.06667 5.53333 8.17 4.9 8.17H3.68V10H1.7V3H4.9ZM4.78 6.61C5.18667 6.61 5.49333 6.52333 5.7 6.35C5.90667 6.17 6.01 5.91667 6.01 5.59C6.01 5.26333 5.90667 5.01 5.7 4.83C5.49333 4.65 5.18667 4.56 4.78 4.56H3.68V6.61H4.78ZM8.97539 3H10.9554V8.43H14.2954V10H8.97539V3ZM18.3489 2.86C19.0089 2.86 19.5889 2.99333 20.0889 3.26C20.5956 3.52 20.9856 3.90333 21.2589 4.41C21.5389 4.91 21.6789 5.51333 21.6789 6.22V10H19.6989V8.45H16.9689V10H15.0189V6.22C15.0189 5.51333 15.1556 4.91 15.4289 4.41C15.7089 3.90333 16.0989 3.52 16.5989 3.26C17.1056 2.99333 17.6889 2.86 18.3489 2.86ZM19.6989 6.92V6.05C19.6989 5.53667 19.5756 5.15 19.3289 4.89C19.0822 4.63 18.7522 4.5 18.3389 4.5C17.9189 4.5 17.5856 4.63 17.3389 4.89C17.0922 5.15 16.9689 5.53667 16.9689 6.05V6.92H19.6989ZM29.3426 3V7.75C29.3426 8.45667 29.2026 9.06333 28.9226 9.57C28.6426 10.07 28.2426 10.4467 27.7226 10.7C27.2092 10.96 26.5992 11.09 25.8926 11.09C25.2726 11.09 24.7092 11.01 24.2026 10.85C23.7026 10.6967 23.2726 10.4767 22.9126 10.19L23.6526 8.76C23.9726 8.99333 24.3159 9.17 24.6826 9.29C25.0492 9.41 25.4259 9.47 25.8126 9.47C26.3459 9.47 26.7359 9.34 26.9826 9.08C27.2359 8.82 27.3626 8.41333 27.3626 7.86V7.54C26.9159 8.08 26.2859 8.35 25.4726 8.35C24.5926 8.35 23.9159 8.1 23.4426 7.6C22.9692 7.09333 22.7326 6.37 22.7326 5.43V3H24.7126V5.3C24.7126 5.77333 24.8192 6.13 25.0326 6.37C25.2526 6.60333 25.5692 6.72 25.9826 6.72C26.4026 6.72 26.7359 6.59667 26.9826 6.35C27.2359 6.10333 27.3626 5.72 27.3626 5.2V3H29.3426ZM37.5745 2.86C38.4079 2.86 39.0545 3.12667 39.5145 3.66C39.9745 4.18667 40.2045 4.94 40.2045 5.92V10H38.2245V5.98C38.2245 5.48667 38.1112 5.11667 37.8845 4.87C37.6645 4.62333 37.3545 4.5 36.9545 4.5C36.5412 4.5 36.2079 4.63333 35.9545 4.9C35.7012 5.16 35.5745 5.55333 35.5745 6.08V10H33.5945V3H35.5145V3.8C35.9879 3.17333 36.6745 2.86 37.5745 2.86ZM45.0738 10.14C44.3338 10.14 43.6671 9.98333 43.0738 9.67C42.4871 9.35667 42.0238 8.92333 41.6838 8.37C41.3504 7.81667 41.1838 7.19333 41.1838 6.5C41.1838 5.80667 41.3504 5.18333 41.6838 4.63C42.0238 4.07667 42.4871 3.64333 43.0738 3.33C43.6671 3.01667 44.3338 2.86 45.0738 2.86C45.8138 2.86 46.4771 3.01667 47.0638 3.33C47.6571 3.64333 48.1204 4.07667 48.4538 4.63C48.7938 5.18333 48.9638 5.80667 48.9638 6.5C48.9638 7.19333 48.7938 7.81667 48.4538 8.37C48.1204 8.92333 47.6571 9.35667 47.0638 9.67C46.4771 9.98333 45.8138 10.14 45.0738 10.14ZM45.0738 8.5C45.4271 8.5 45.7471 8.41667 46.0338 8.25C46.3204 8.08333 46.5471 7.85 46.7138 7.55C46.8804 7.24333 46.9638 6.89333 46.9638 6.5C46.9638 6.10667 46.8804 5.76 46.7138 5.46C46.5471 5.15333 46.3204 4.91667 46.0338 4.75C45.7471 4.58333 45.4271 4.5 45.0738 4.5C44.7204 4.5 44.4004 4.58333 44.1138 4.75C43.8271 4.91667 43.6004 5.15333 43.4338 5.46C43.2671 5.76 43.1838 6.10667 43.1838 6.5C43.1838 6.89333 43.2671 7.24333 43.4338 7.55C43.6004 7.85 43.8271 8.08333 44.1138 8.25C44.4004 8.41667 44.7204 8.5 45.0738 8.5ZM60.7708 3V7.09C60.7708 8.07667 60.4874 8.83333 59.9208 9.36C59.3608 9.88 58.5674 10.14 57.5408 10.14C57.0808 10.14 56.6641 10.0767 56.2908 9.95C55.9241 9.82333 55.6141 9.64333 55.3608 9.41C55.1074 9.64333 54.7941 9.82333 54.4208 9.95C54.0541 10.0767 53.6374 10.14 53.1708 10.14C52.1508 10.14 51.3574 9.87667 50.7908 9.35C50.2241 8.82333 49.9408 8.07 49.9408 7.09V3H51.9208V7.03C51.9208 7.53 52.0208 7.9 52.2208 8.14C52.4274 8.38 52.7341 8.5 53.1408 8.5C53.5474 8.5 53.8508 8.38 54.0508 8.14C54.2574 7.9 54.3608 7.53 54.3608 7.03V3H56.3408V7.03C56.3408 7.53 56.4441 7.9 56.6508 8.14C56.8574 8.38 57.1674 8.5 57.5808 8.5C57.9874 8.5 58.2908 8.38 58.4908 8.14C58.6908 7.9 58.7908 7.53 58.7908 7.03V3H60.7708Z" fill="#EF4444"/>
</g>
<defs>
<filter id="filter0_d_273_4" x="1.65991" y="13.76" width="203.385" height="28.4" filterUnits="userSpaceOnUse" color-interpolation-filters="sRGB">
<feFlood flood-opacity="0" result="BackgroundImageFix"/>
<feColorMatrix in="SourceAlpha" type="matrix" values="0 0 0 0 0 0 0 0 0 0 0 0 0 0 0 0 0 0 127 0" result="hardAlpha"/>
<feOffset dx="5" dy="5"/>
<feGaussianBlur stdDeviation="3"/>
<feComposite in2="hardAlpha" operator="out"/>
<feColorMatrix type="matrix" values="0 0 0 0 0 0 0 0 0 0 0 0 0 0 0 0 0 0 0.25 0"/>
<feBlend mode="normal" in2="BackgroundImageFix" result="effect1_dropShadow_273_4"/>
<feBlend mode="normal" in="SourceGraphic" in2="effect1_dropShadow_273_4" result="shape"/>
</filter>
<filter id="filter1_d_273_4" x="0.699951" y="1.85999" width="71.0708" height="20.23" filterUnits="userSpaceOnUse" color-interpolation-filters="sRGB">
<feFlood flood-opacity="0" result="BackgroundImageFix"/>
<feColorMatrix in="SourceAlpha" type="matrix" values="0 0 0 0 0 0 0 0 0 0 0 0 0 0 0 0 0 0 127 0" result="hardAlpha"/>
<feOffset dx="5" dy="5"/>
<feGaussianBlur stdDeviation="3"/>
<feComposite in2="hardAlpha" operator="out"/>
<feColorMatrix type="matrix" values="0 0 0 0 0 0 0 0 0 0 0 0 0 0 0 0 0 0 0.25 0"/>
<feBlend mode="normal" in2="BackgroundImageFix" result="effect1_dropShadow_273_4"/>
<feBlend mode="normal" in="SourceGraphic" in2="effect1_dropShadow_273_4" result="shape"/>
</filter>
</defs>
</svg>
