<svg width="224" height="47" viewBox="0 0 224 47" fill="none" xmlns="http://www.w3.org/2000/svg">
<g filter="url(#filter0_d_258_4)">
<path d="M1.826 16.6H5.39V29.096H13.112V32H1.826V16.6ZM28.682 16.6V32H25.228V30.13C24.172 31.5527 22.6173 32.264 20.564 32.264C18.7453 32.264 17.3227 31.692 16.296 30.548C15.284 29.3893 14.778 27.7467 14.778 25.62V16.6H18.342V25.51C18.342 26.742 18.628 27.6733 19.2 28.304C19.7867 28.92 20.5787 29.228 21.576 29.228C22.6467 29.228 23.5047 28.898 24.15 28.238C24.7953 27.5633 25.118 26.5733 25.118 25.268V16.6H28.682ZM39.7038 32.264C38.1345 32.264 36.7118 31.9267 35.4358 31.252C34.1745 30.5627 33.1771 29.6167 32.4438 28.414C31.7251 27.1967 31.3658 25.8253 31.3658 24.3C31.3658 22.7747 31.7251 21.4107 32.4438 20.208C33.1771 18.9907 34.1745 18.0447 35.4358 17.37C36.7118 16.6807 38.1418 16.336 39.7258 16.336C41.0605 16.336 42.2631 16.5707 43.3338 17.04C44.4191 17.5093 45.3285 18.184 46.0618 19.064L43.7738 21.176C42.7325 19.9733 41.4418 19.372 39.9018 19.372C38.9485 19.372 38.0978 19.5847 37.3498 20.01C36.6018 20.4207 36.0151 21 35.5898 21.748C35.1791 22.496 34.9738 23.3467 34.9738 24.3C34.9738 25.2533 35.1791 26.104 35.5898 26.852C36.0151 27.6 36.6018 28.1867 37.3498 28.612C38.0978 29.0227 38.9485 29.228 39.9018 29.228C41.4418 29.228 42.7325 28.6193 43.7738 27.402L46.0618 29.514C45.3285 30.4087 44.4191 31.0907 43.3338 31.56C42.2485 32.0293 41.0385 32.264 39.7038 32.264ZM54.0786 25.95L52.0106 28.106V32H48.4686V16.6H52.0106V23.794L58.8306 16.6H62.7906L56.4106 23.464L63.1646 32H59.0066L54.0786 25.95ZM77.9666 16.6V27.182C77.9666 29.4993 77.3213 31.274 76.0306 32.506C74.74 33.7527 72.958 34.376 70.6846 34.376C69.3793 34.376 68.184 34.1927 67.0986 33.826C66.0133 33.474 65.0893 32.968 64.3266 32.308L65.7126 29.668C67.106 30.7973 68.734 31.362 70.5966 31.362C71.8873 31.362 72.8406 31.0393 73.4566 30.394C74.0873 29.734 74.4026 28.722 74.4026 27.358V26.412C73.376 27.6733 71.924 28.304 70.0466 28.304C68.096 28.304 66.5926 27.754 65.5366 26.654C64.4953 25.5393 63.9746 23.9407 63.9746 21.858V16.6H67.5386V21.638C67.5386 22.8407 67.8246 23.75 68.3966 24.366C68.9686 24.982 69.7753 25.29 70.8166 25.29C71.9166 25.29 72.7893 24.9673 73.4346 24.322C74.08 23.6767 74.4026 22.7013 74.4026 21.396V16.6H77.9666ZM87.7205 16.6H94.7165C96.3885 16.6 97.8625 16.9227 99.1385 17.568C100.429 18.1987 101.427 19.0933 102.131 20.252C102.849 21.4107 103.209 22.76 103.209 24.3C103.209 25.84 102.849 27.1893 102.131 28.348C101.427 29.5067 100.429 30.4087 99.1385 31.054C97.8625 31.6847 96.3885 32 94.7165 32H87.7205V16.6ZM94.5405 29.074C96.0805 29.074 97.3052 28.6487 98.2145 27.798C99.1385 26.9327 99.6005 25.7667 99.6005 24.3C99.6005 22.8333 99.1385 21.6747 98.2145 20.824C97.3052 19.9587 96.0805 19.526 94.5405 19.526H91.2845V29.074H94.5405ZM111.069 19.46V29.14H113.731V32H104.821V29.14H107.505V19.46H104.821V16.6H113.731V19.46H111.069ZM123.354 16.336C124.776 16.336 126.016 16.6147 127.072 17.172C128.128 17.7293 128.949 18.5507 129.536 19.636C130.122 20.7213 130.416 22.034 130.416 23.574V32H126.852V28.304H119.812V32H116.292V23.574C116.292 22.034 116.585 20.7213 117.172 19.636C117.758 18.5507 118.58 17.7293 119.636 17.172C120.692 16.6147 121.931 16.336 123.354 16.336ZM126.852 25.444V23.244C126.852 21.968 126.536 21.0073 125.906 20.362C125.275 19.702 124.417 19.372 123.332 19.372C122.232 19.372 121.366 19.702 120.736 20.362C120.12 21.0073 119.812 21.968 119.812 23.244V25.444H126.852ZM151.511 16.336C153.33 16.336 154.745 16.8713 155.757 17.942C156.769 18.998 157.275 20.5307 157.275 22.54V32H153.711V22.65C153.711 21.5647 153.425 20.7507 152.853 20.208C152.296 19.6507 151.555 19.372 150.631 19.372C149.619 19.372 148.813 19.6653 148.211 20.252C147.61 20.824 147.309 21.6967 147.309 22.87V32H143.745V22.65C143.745 21.5647 143.481 20.7507 142.953 20.208C142.425 19.6507 141.707 19.372 140.797 19.372C139.8 19.372 139.001 19.6653 138.399 20.252C137.798 20.824 137.497 21.6967 137.497 22.87V32H133.933V16.6H137.387V18.492C137.857 17.8027 138.48 17.2747 139.257 16.908C140.035 16.5267 140.929 16.336 141.941 16.336C142.997 16.336 143.921 16.534 144.713 16.93C145.505 17.3113 146.114 17.8687 146.539 18.602C147.067 17.8687 147.757 17.3113 148.607 16.93C149.473 16.534 150.441 16.336 151.511 16.336ZM168.247 32.264C166.648 32.264 165.204 31.9193 163.913 31.23C162.637 30.5407 161.632 29.5947 160.899 28.392C160.18 27.1747 159.821 25.8107 159.821 24.3C159.821 22.7893 160.18 21.4327 160.899 20.23C161.632 19.0127 162.637 18.0593 163.913 17.37C165.204 16.6807 166.648 16.336 168.247 16.336C169.846 16.336 171.283 16.6807 172.559 17.37C173.835 18.0593 174.84 19.0127 175.573 20.23C176.306 21.4327 176.673 22.7893 176.673 24.3C176.673 25.8107 176.306 27.1747 175.573 28.392C174.84 29.5947 173.835 30.5407 172.559 31.23C171.283 31.9193 169.846 32.264 168.247 32.264ZM168.247 29.228C169.156 29.228 169.978 29.0227 170.711 28.612C171.444 28.1867 172.016 27.6 172.427 26.852C172.852 26.104 173.065 25.2533 173.065 24.3C173.065 23.3467 172.852 22.496 172.427 21.748C172.016 21 171.444 20.4207 170.711 20.01C169.978 19.5847 169.156 19.372 168.247 19.372C167.338 19.372 166.516 19.5847 165.783 20.01C165.05 20.4207 164.47 21 164.045 21.748C163.634 22.496 163.429 23.3467 163.429 24.3C163.429 25.2533 163.634 26.104 164.045 26.852C164.47 27.6 165.05 28.1867 165.783 28.612C166.516 29.0227 167.338 29.228 168.247 29.228ZM187.513 16.336C189.347 16.336 190.777 16.9153 191.803 18.074C192.83 19.218 193.343 20.8533 193.343 22.98V32H189.779V23.09C189.779 21.858 189.486 20.934 188.899 20.318C188.327 19.6873 187.528 19.372 186.501 19.372C185.416 19.372 184.543 19.7093 183.883 20.384C183.238 21.044 182.915 22.0267 182.915 23.332V32H179.351V16.6H182.805V18.47C183.333 17.766 183.993 17.238 184.785 16.886C185.577 16.5193 186.487 16.336 187.513 16.336ZM196.861 16.6H203.857C205.529 16.6 207.003 16.9227 208.279 17.568C209.57 18.1987 210.567 19.0933 211.271 20.252C211.99 21.4107 212.349 22.76 212.349 24.3C212.349 25.84 211.99 27.1893 211.271 28.348C210.567 29.5067 209.57 30.4087 208.279 31.054C207.003 31.6847 205.529 32 203.857 32H196.861V16.6ZM203.681 29.074C205.221 29.074 206.446 28.6487 207.355 27.798C208.279 26.9327 208.741 25.7667 208.741 24.3C208.741 22.8333 208.279 21.6747 207.355 20.824C206.446 19.9587 205.221 19.526 203.681 19.526H200.425V29.074H203.681Z" fill="white"/>
</g>
<g filter="url(#filter1_d_258_4)">
<path d="M4.9 3C5.53333 3 6.08333 3.10667 6.55 3.32C7.01667 3.52667 7.37667 3.82667 7.63 4.22C7.88333 4.60667 8.01 5.06333 8.01 5.59C8.01 6.11667 7.88333 6.57333 7.63 6.96C7.37667 7.34667 7.01667 7.64667 6.55 7.86C6.08333 8.06667 5.53333 8.17 4.9 8.17H3.68V10H1.7V3H4.9ZM4.78 6.61C5.18667 6.61 5.49333 6.52333 5.7 6.35C5.90667 6.17 6.01 5.91667 6.01 5.59C6.01 5.26333 5.90667 5.01 5.7 4.83C5.49333 4.65 5.18667 4.56 4.78 4.56H3.68V6.61H4.78ZM8.97539 3H10.9554V8.43H14.2954V10H8.97539V3ZM18.3489 2.86C19.0089 2.86 19.5889 2.99333 20.0889 3.26C20.5956 3.52 20.9856 3.90333 21.2589 4.41C21.5389 4.91 21.6789 5.51333 21.6789 6.22V10H19.6989V8.45H16.9689V10H15.0189V6.22C15.0189 5.51333 15.1556 4.91 15.4289 4.41C15.7089 3.90333 16.0989 3.52 16.5989 3.26C17.1056 2.99333 17.6889 2.86 18.3489 2.86ZM19.6989 6.92V6.05C19.6989 5.53667 19.5756 5.15 19.3289 4.89C19.0822 4.63 18.7522 4.5 18.3389 4.5C17.9189 4.5 17.5856 4.63 17.3389 4.89C17.0922 5.15 16.9689 5.53667 16.9689 6.05V6.92H19.6989ZM29.3426 3V7.75C29.3426 8.45667 29.2026 9.06333 28.9226 9.57C28.6426 10.07 28.2426 10.4467 27.7226 10.7C27.2092 10.96 26.5992 11.09 25.8926 11.09C25.2726 11.09 24.7092 11.01 24.2026 10.85C23.7026 10.6967 23.2726 10.4767 22.9126 10.19L23.6526 8.76C23.9726 8.99333 24.3159 9.17 24.6826 9.29C25.0492 9.41 25.4259 9.47 25.8126 9.47C26.3459 9.47 26.7359 9.34 26.9826 9.08C27.2359 8.82 27.3626 8.41333 27.3626 7.86V7.54C26.9159 8.08 26.2859 8.35 25.4726 8.35C24.5926 8.35 23.9159 8.1 23.4426 7.6C22.9692 7.09333 22.7326 6.37 22.7326 5.43V3H24.7126V5.3C24.7126 5.77333 24.8192 6.13 25.0326 6.37C25.2526 6.60333 25.5692 6.72 25.9826 6.72C26.4026 6.72 26.7359 6.59667 26.9826 6.35C27.2359 6.10333 27.3626 5.72 27.3626 5.2V3H29.3426ZM37.5745 2.86C38.4079 2.86 39.0545 3.12667 39.5145 3.66C39.9745 4.18667 40.2045 4.94 40.2045 5.92V10H38.2245V5.98C38.2245 5.48667 38.1112 5.11667 37.8845 4.87C37.6645 4.62333 37.3545 4.5 36.9545 4.5C36.5412 4.5 36.2079 4.63333 35.9545 4.9C35.7012 5.16 35.5745 5.55333 35.5745 6.08V10H33.5945V3H35.5145V3.8C35.9879 3.17333 36.6745 2.86 37.5745 2.86ZM45.0738 10.14C44.3338 10.14 43.6671 9.98333 43.0738 9.67C42.4871 9.35667 42.0238 8.92333 41.6838 8.37C41.3504 7.81667 41.1838 7.19333 41.1838 6.5C41.1838 5.80667 41.3504 5.18333 41.6838 4.63C42.0238 4.07667 42.4871 3.64333 43.0738 3.33C43.6671 3.01667 44.3338 2.86 45.0738 2.86C45.8138 2.86 46.4771 3.01667 47.0638 3.33C47.6571 3.64333 48.1204 4.07667 48.4538 4.63C48.7938 5.18333 48.9638 5.80667 48.9638 6.5C48.9638 7.19333 48.7938 7.81667 48.4538 8.37C48.1204 8.92333 47.6571 9.35667 47.0638 9.67C46.4771 9.98333 45.8138 10.14 45.0738 10.14ZM45.0738 8.5C45.4271 8.5 45.7471 8.41667 46.0338 8.25C46.3204 8.08333 46.5471 7.85 46.7138 7.55C46.8804 7.24333 46.9638 6.89333 46.9638 6.5C46.9638 6.10667 46.8804 5.76 46.7138 5.46C46.5471 5.15333 46.3204 4.91667 46.0338 4.75C45.7471 4.58333 45.4271 4.5 45.0738 4.5C44.7204 4.5 44.4004 4.58333 44.1138 4.75C43.8271 4.91667 43.6004 5.15333 43.4338 5.46C43.2671 5.76 43.1838 6.10667 43.1838 6.5C43.1838 6.89333 43.2671 7.24333 43.4338 7.55C43.6004 7.85 43.8271 8.08333 44.1138 8.25C44.4004 8.41667 44.7204 8.5 45.0738 8.5ZM60.7708 3V7.09C60.7708 8.07667 60.4874 8.83333 59.9208 9.36C59.3608 9.88 58.5674 10.14 57.5408 10.14C57.0808 10.14 56.6641 10.0767 56.2908 9.95C55.9241 9.82333 55.6141 9.64333 55.3608 9.41C55.1074 9.64333 54.7941 9.82333 54.4208 9.95C54.0541 10.0767 53.6374 10.14 53.1708 10.14C52.1508 10.14 51.3574 9.87667 50.7908 9.35C50.2241 8.82333 49.9408 8.07 49.9408 7.09V3H51.9208V7.03C51.9208 7.53 52.0208 7.9 52.2208 8.14C52.4274 8.38 52.7341 8.5 53.1408 8.5C53.5474 8.5 53.8508 8.38 54.0508 8.14C54.2574 7.9 54.3608 7.53 54.3608 7.03V3H56.3408V7.03C56.3408 7.53 56.4441 7.9 56.6508 8.14C56.8574 8.38 57.1674 8.5 57.5808 8.5C57.9874 8.5 58.2908 8.38 58.4908 8.14C58.6908 7.9 58.7908 7.53 58.7908 7.03V3H60.7708Z" fill="#EF4444"/>
</g>
<defs>
<filter id="filter0_d_258_4" x="0.825928" y="15.336" width="222.523" height="30.04" filterUnits="userSpaceOnUse" color-interpolation-filters="sRGB">
<feFlood flood-opacity="0" result="BackgroundImageFix"/>
<feColorMatrix in="SourceAlpha" type="matrix" values="0 0 0 0 0 0 0 0 0 0 0 0 0 0 0 0 0 0 127 0" result="hardAlpha"/>
<feOffset dx="5" dy="5"/>
<feGaussianBlur stdDeviation="3"/>
<feComposite in2="hardAlpha" operator="out"/>
<feColorMatrix type="matrix" values="0 0 0 0 0 0 0 0 0 0 0 0 0 0 0 0 0 0 0.25 0"/>
<feBlend mode="normal" in2="BackgroundImageFix" result="effect1_dropShadow_258_4"/>
<feBlend mode="normal" in="SourceGraphic" in2="effect1_dropShadow_258_4" result="shape"/>
</filter>
<filter id="filter1_d_258_4" x="0.699951" y="1.85999" width="71.0708" height="20.23" filterUnits="userSpaceOnUse" color-interpolation-filters="sRGB">
<feFlood flood-opacity="0" result="BackgroundImageFix"/>
<feColorMatrix in="SourceAlpha" type="matrix" values="0 0 0 0 0 0 0 0 0 0 0 0 0 0 0 0 0 0 127 0" result="hardAlpha"/>
<feOffset dx="5" dy="5"/>
<feGaussianBlur stdDeviation="3"/>
<feComposite in2="hardAlpha" operator="out"/>
<feColorMatrix type="matrix" values="0 0 0 0 0 0 0 0 0 0 0 0 0 0 0 0 0 0 0.25 0"/>
<feBlend mode="normal" in2="BackgroundImageFix" result="effect1_dropShadow_258_4"/>
<feBlend mode="normal" in="SourceGraphic" in2="effect1_dropShadow_258_4" result="shape"/>
</filter>
</defs>
</svg>
