<svg width="20" height="20" viewBox="0 0 20 20" fill="none" xmlns="http://www.w3.org/2000/svg">
<path id="Vector" d="M18.0156 4.28571H3.125C2.78125 4.28571 2.5 3.96429 2.5 3.57143C2.5 3.17857 2.78125 2.85714 3.125 2.85714H18.125C18.4688 2.85714 18.75 2.53571 18.75 2.14286C18.75 0.959821 17.9102 0 16.875 0H2.5C1.12109 0 0 1.28125 0 2.85714V17.1429C0 18.7232 1.12109 20 2.5 20H18.0156C19.1094 20 20 19.0402 20 17.8571V6.42857C20 5.24554 19.1094 4.28571 18.0156 4.28571ZM16.25 13.5714C15.5586 13.5714 15 12.933 15 12.1429C15 11.3527 15.5586 10.7143 16.25 10.7143C16.9414 10.7143 17.5 11.3527 17.5 12.1429C17.5 12.933 16.9414 13.5714 16.25 13.5714Z" fill="#17181C"/>
</svg>
