<svg width="208" height="198" viewBox="0 0 208 198" fill="none" xmlns="http://www.w3.org/2000/svg">
<g filter="url(#filter0_bddf_290_4)">
<path d="M51.9315 77.9679L71.7926 53.7515C73.4352 51.7486 75.791 50.4613 78.3638 50.1606L83.7001 49.5369C86.3034 49.2327 88.922 49.9626 90.9925 51.5697L115.385 70.5021C117.543 72.1778 118.923 74.6642 119.201 77.3829L121.923 103.962C122.185 106.52 121.452 109.081 119.875 111.112L100.84 135.636C99.1944 137.756 96.7662 139.126 94.1009 139.437L88.9216 140.043C86.3178 140.347 83.6986 139.617 81.628 138.009L56.6139 118.587C54.4948 116.942 53.1257 114.514 52.8143 111.849L49.7312 85.4702C49.4162 82.7745 50.2104 80.0665 51.9315 77.9679Z" fill="url(#paint0_linear_290_4)"/>
<path d="M51.9315 77.9679L71.7926 53.7515C73.4352 51.7486 75.791 50.4613 78.3638 50.1606L83.7001 49.5369C86.3034 49.2327 88.922 49.9626 90.9925 51.5697L115.385 70.5021C117.543 72.1778 118.923 74.6642 119.201 77.3829L121.923 103.962C122.185 106.52 121.452 109.081 119.875 111.112L100.84 135.636C99.1944 137.756 96.7662 139.126 94.1009 139.437L88.9216 140.043C86.3178 140.347 83.6986 139.617 81.628 138.009L56.6139 118.587C54.4948 116.942 53.1257 114.514 52.8143 111.849L49.7312 85.4702C49.4162 82.7745 50.2104 80.0665 51.9315 77.9679Z" stroke="url(#paint1_linear_290_4)" stroke-width="6"/>
</g>
<g filter="url(#filter1_bddf_290_4)">
<path d="M103.594 84.5815L120.124 72.3178C122.206 70.7734 124.806 70.0976 127.376 70.433L129.065 70.6533C131.665 70.9926 134.028 72.34 135.645 74.4052L148.12 90.3416C149.804 92.4923 150.535 95.238 150.143 97.9409L147.667 115.01C147.298 117.553 145.964 119.857 143.942 121.443L127.886 134.037C125.774 135.694 123.083 136.432 120.421 136.085L118.889 135.885C116.288 135.546 113.924 134.198 112.308 132.132L99.4654 115.721C97.8131 113.61 97.0778 110.923 97.4247 108.265L99.6358 91.3189C99.9868 88.6293 101.415 86.1976 103.594 84.5815Z" fill="url(#paint2_linear_290_4)"/>
<path d="M103.594 84.5815L120.124 72.3178C122.206 70.7734 124.806 70.0976 127.376 70.433L129.065 70.6533C131.665 70.9926 134.028 72.34 135.645 74.4052L148.12 90.3416C149.804 92.4923 150.535 95.238 150.143 97.9409L147.667 115.01C147.298 117.553 145.964 119.857 143.942 121.443L127.886 134.037C125.774 135.694 123.083 136.432 120.421 136.085L118.889 135.885C116.288 135.546 113.924 134.198 112.308 132.132L99.4654 115.721C97.8131 113.61 97.0778 110.923 97.4247 108.265L99.6358 91.3189C99.9868 88.6293 101.415 86.1976 103.594 84.5815Z" stroke="url(#paint3_linear_290_4)" stroke-width="6"/>
</g>
<defs>
<filter id="filter0_bddf_290_4" x="0.663574" y="0.469299" width="178.312" height="196.641" filterUnits="userSpaceOnUse" color-interpolation-filters="sRGB">
<feFlood flood-opacity="0" result="BackgroundImageFix"/>
<feGaussianBlur in="BackgroundImageFix" stdDeviation="2.5"/>
<feComposite in2="SourceAlpha" operator="in" result="effect1_backgroundBlur_290_4"/>
<feColorMatrix in="SourceAlpha" type="matrix" values="0 0 0 0 0 0 0 0 0 0 0 0 0 0 0 0 0 0 127 0" result="hardAlpha"/>
<feOffset dx="4" dy="4"/>
<feGaussianBlur stdDeviation="25"/>
<feComposite in2="hardAlpha" operator="out"/>
<feColorMatrix type="matrix" values="0 0 0 0 0.360784 0 0 0 0 0.745098 0 0 0 0 0.458824 0 0 0 0.6 0"/>
<feBlend mode="normal" in2="effect1_backgroundBlur_290_4" result="effect2_dropShadow_290_4"/>
<feColorMatrix in="SourceAlpha" type="matrix" values="0 0 0 0 0 0 0 0 0 0 0 0 0 0 0 0 0 0 127 0" result="hardAlpha"/>
<feOffset dx="4" dy="4"/>
<feGaussianBlur stdDeviation="25"/>
<feComposite in2="hardAlpha" operator="out"/>
<feColorMatrix type="matrix" values="0 0 0 0 0.00392157 0 0 0 0 0.262745 0 0 0 0 0.00392157 0 0 0 0.2 0"/>
<feBlend mode="normal" in2="effect2_dropShadow_290_4" result="effect3_dropShadow_290_4"/>
<feBlend mode="normal" in="SourceGraphic" in2="effect3_dropShadow_290_4" result="shape"/>
<feGaussianBlur stdDeviation="0.15" result="effect4_foregroundBlur_290_4"/>
</filter>
<filter id="filter1_bddf_290_4" x="48.3406" y="21.3489" width="158.906" height="171.82" filterUnits="userSpaceOnUse" color-interpolation-filters="sRGB">
<feFlood flood-opacity="0" result="BackgroundImageFix"/>
<feGaussianBlur in="BackgroundImageFix" stdDeviation="2.5"/>
<feComposite in2="SourceAlpha" operator="in" result="effect1_backgroundBlur_290_4"/>
<feColorMatrix in="SourceAlpha" type="matrix" values="0 0 0 0 0 0 0 0 0 0 0 0 0 0 0 0 0 0 127 0" result="hardAlpha"/>
<feOffset dx="4" dy="4"/>
<feGaussianBlur stdDeviation="25"/>
<feComposite in2="hardAlpha" operator="out"/>
<feColorMatrix type="matrix" values="0 0 0 0 0.360784 0 0 0 0 0.745098 0 0 0 0 0.458824 0 0 0 0.6 0"/>
<feBlend mode="normal" in2="effect1_backgroundBlur_290_4" result="effect2_dropShadow_290_4"/>
<feColorMatrix in="SourceAlpha" type="matrix" values="0 0 0 0 0 0 0 0 0 0 0 0 0 0 0 0 0 0 127 0" result="hardAlpha"/>
<feOffset dx="4" dy="4"/>
<feGaussianBlur stdDeviation="25"/>
<feComposite in2="hardAlpha" operator="out"/>
<feColorMatrix type="matrix" values="0 0 0 0 0.00392157 0 0 0 0 0.262745 0 0 0 0 0.00392157 0 0 0 0.2 0"/>
<feBlend mode="normal" in2="effect2_dropShadow_290_4" result="effect3_dropShadow_290_4"/>
<feBlend mode="normal" in="SourceGraphic" in2="effect3_dropShadow_290_4" result="shape"/>
<feGaussianBlur stdDeviation="0.15" result="effect4_foregroundBlur_290_4"/>
</filter>
<linearGradient id="paint0_linear_290_4" x1="58.8031" y1="64.025" x2="115.998" y2="139.899" gradientUnits="userSpaceOnUse">
<stop stop-color="#B6FFD0"/>
<stop offset="1" stop-color="#007B18"/>
</linearGradient>
<linearGradient id="paint1_linear_290_4" x1="80.8093" y1="49.8748" x2="91.3149" y2="139.763" gradientUnits="userSpaceOnUse">
<stop stop-color="#458845"/>
<stop offset="1" stop-color="#255125"/>
</linearGradient>
<linearGradient id="paint2_linear_290_4" x1="110.003" y1="76.6239" x2="136.997" y2="140.424" gradientUnits="userSpaceOnUse">
<stop stop-color="#B6FFD0"/>
<stop offset="1" stop-color="#007B18"/>
</linearGradient>
<linearGradient id="paint3_linear_290_4" x1="128.065" y1="70.5229" x2="119.526" y2="135.968" gradientUnits="userSpaceOnUse">
<stop stop-color="#458845"/>
<stop offset="1" stop-color="#255125"/>
</linearGradient>
</defs>
</svg>
