<svg width="58" height="58" viewBox="0 0 58 58" fill="none" xmlns="http://www.w3.org/2000/svg">
<g filter="url(#filter0_d_362_88)">
<path d="M12.5 41.6667C13.6574 41.6667 14.6412 41.2616 15.4514 40.4514C16.2616 39.6412 16.6667 38.6574 16.6667 37.5C16.6667 36.3426 16.2616 35.3588 15.4514 34.5486C14.6412 33.7384 13.6574 33.3333 12.5 33.3333C11.3426 33.3333 10.3588 33.7384 9.54861 34.5486C8.73843 35.3588 8.33333 36.3426 8.33333 37.5C8.33333 38.6574 8.73843 39.6412 9.54861 40.4514C10.3588 41.2616 11.3426 41.6667 12.5 41.6667ZM12.5 16.6667C13.6574 16.6667 14.6412 16.2616 15.4514 15.4514C16.2616 14.6412 16.6667 13.6574 16.6667 12.5C16.6667 11.3426 16.2616 10.3588 15.4514 9.54861C14.6412 8.73843 13.6574 8.33333 12.5 8.33333C11.3426 8.33333 10.3588 8.73843 9.54861 9.54861C8.73843 10.3588 8.33333 11.3426 8.33333 12.5C8.33333 13.6574 8.73843 14.6412 9.54861 15.4514C10.3588 16.2616 11.3426 16.6667 12.5 16.6667ZM25 29.1667C26.1574 29.1667 27.1412 28.7616 27.9514 27.9514C28.7616 27.1412 29.1667 26.1574 29.1667 25C29.1667 23.8426 28.7616 22.8588 27.9514 22.0486C27.1412 21.2384 26.1574 20.8333 25 20.8333C23.8426 20.8333 22.8588 21.2384 22.0486 22.0486C21.2384 22.8588 20.8333 23.8426 20.8333 25C20.8333 26.1574 21.2384 27.1412 22.0486 27.9514C22.8588 28.7616 23.8426 29.1667 25 29.1667ZM37.5 41.6667C38.6574 41.6667 39.6412 41.2616 40.4514 40.4514C41.2616 39.6412 41.6667 38.6574 41.6667 37.5C41.6667 36.3426 41.2616 35.3588 40.4514 34.5486C39.6412 33.7384 38.6574 33.3333 37.5 33.3333C36.3426 33.3333 35.3588 33.7384 34.5486 34.5486C33.7384 35.3588 33.3333 36.3426 33.3333 37.5C33.3333 38.6574 33.7384 39.6412 34.5486 40.4514C35.3588 41.2616 36.3426 41.6667 37.5 41.6667ZM37.5 16.6667C38.6574 16.6667 39.6412 16.2616 40.4514 15.4514C41.2616 14.6412 41.6667 13.6574 41.6667 12.5C41.6667 11.3426 41.2616 10.3588 40.4514 9.54861C39.6412 8.73843 38.6574 8.33333 37.5 8.33333C36.3426 8.33333 35.3588 8.73843 34.5486 9.54861C33.7384 10.3588 33.3333 11.3426 33.3333 12.5C33.3333 13.6574 33.7384 14.6412 34.5486 15.4514C35.3588 16.2616 36.3426 16.6667 37.5 16.6667ZM5.55556 50C4.02778 50 2.71991 49.456 1.63194 48.3681C0.543981 47.2801 0 45.9722 0 44.4444V5.55556C0 4.02778 0.543981 2.71991 1.63194 1.63194C2.71991 0.543981 4.02778 0 5.55556 0H44.4444C45.9722 0 47.2801 0.543981 48.3681 1.63194C49.456 2.71991 50 4.02778 50 5.55556V44.4444C50 45.9722 49.456 47.2801 48.3681 48.3681C47.2801 49.456 45.9722 50 44.4444 50H5.55556ZM5.55556 44.4444H44.4444V5.55556H5.55556V44.4444Z" fill="#EF4444"/>
</g>
<defs>
<filter id="filter0_d_362_88" x="0" y="0" width="58" height="58" filterUnits="userSpaceOnUse" color-interpolation-filters="sRGB">
<feFlood flood-opacity="0" result="BackgroundImageFix"/>
<feColorMatrix in="SourceAlpha" type="matrix" values="0 0 0 0 0 0 0 0 0 0 0 0 0 0 0 0 0 0 127 0" result="hardAlpha"/>
<feOffset dx="4" dy="4"/>
<feGaussianBlur stdDeviation="2"/>
<feComposite in2="hardAlpha" operator="out"/>
<feColorMatrix type="matrix" values="0 0 0 0 0 0 0 0 0 0 0 0 0 0 0 0 0 0 0.25 0"/>
<feBlend mode="normal" in2="BackgroundImageFix" result="effect1_dropShadow_362_88"/>
<feBlend mode="normal" in="SourceGraphic" in2="effect1_dropShadow_362_88" result="shape"/>
</filter>
</defs>
</svg>
