<svg width="1173" height="37" viewBox="0 0 1173 37" fill="none" xmlns="http://www.w3.org/2000/svg">
<g filter="url(#filter0_d_469_38)">
<path d="M5.74 19V5H11.8C13.0533 5 14.1333 5.20667 15.04 5.62C15.9467 6.02 16.6467 6.6 17.14 7.36C17.6333 8.12 17.88 9.02667 17.88 10.08C17.88 11.12 17.6333 12.02 17.14 12.78C16.6467 13.54 15.9467 14.1267 15.04 14.54C14.1333 14.94 13.0533 15.14 11.8 15.14H7.54L8.98 13.68V19H5.74ZM8.98 14.04L7.54 12.5H11.62C12.62 12.5 13.3667 12.2867 13.86 11.86C14.3533 11.4333 14.6 10.84 14.6 10.08C14.6 9.30667 14.3533 8.70667 13.86 8.28C13.3667 7.85333 12.62 7.64 11.62 7.64H7.54L8.98 6.1V14.04ZM22.9973 10.64H29.7373V13.16H22.9973V10.64ZM23.2373 16.4H30.8573V19H20.0173V5H30.5973V7.6H23.2373V16.4ZM49.1777 19L45.4177 12.26L48.1577 10.68L52.9177 19H49.1777ZM43.0377 13.36V10.66H47.3977V13.36H43.0377ZM48.3377 12.36L45.3377 12L49.2377 5H52.6577L48.3377 12.36ZM35.5977 19H31.8577L36.6177 10.68L39.3577 12.26L35.5977 19ZM43.9977 19H40.8177V5H43.9977V19ZM41.7577 13.36H37.3777V10.66H41.7577V13.36ZM36.4577 12.36L32.1177 5H35.5377L39.4177 12L36.4577 12.36ZM54.4705 19V5H57.6905V14.12L64.3705 5H67.4105V19H64.2105V9.9L57.5305 19H54.4705ZM70.8963 19V5H73.5763L79.5363 14.88H78.1163L83.9763 5H86.6563L86.6763 19H83.6363L83.6163 9.66H84.1963L79.4963 17.52H78.0563L73.2563 9.66H73.9363V19H70.8963ZM96.9341 9.6C98.6274 9.6 99.9341 9.98 100.854 10.74C101.774 11.4867 102.234 12.6133 102.234 14.12C102.234 15.72 101.721 16.9333 100.694 17.76C99.6807 18.5867 98.2741 19 96.4741 19H90.1541V5H93.3741V9.6H96.9341ZM96.2941 16.6C97.1207 16.6 97.7741 16.3933 98.2541 15.98C98.7341 15.5667 98.9741 14.9667 98.9741 14.18C98.9741 13.4067 98.7341 12.8533 98.2541 12.52C97.7874 12.1733 97.1341 12 96.2941 12H93.3741V16.6H96.2941ZM104.014 19V5H107.234V19H104.014ZM116.385 19V5H119.605V14.12L126.285 5H129.325V19H126.125V9.9L119.445 19H116.385ZM132.81 19V5H142.69L142.67 7.64H135.27L136.01 6.9L136.03 19H132.81ZM144.666 19V5H150.726C151.979 5 153.059 5.20667 153.966 5.62C154.872 6.02 155.572 6.6 156.066 7.36C156.559 8.12 156.806 9.02667 156.806 10.08C156.806 11.12 156.559 12.02 156.066 12.78C155.572 13.54 154.872 14.1267 153.966 14.54C153.059 14.94 151.979 15.14 150.726 15.14H146.466L147.906 13.68V19H144.666ZM147.906 14.04L146.466 12.5H150.546C151.546 12.5 152.292 12.2867 152.786 11.86C153.279 11.4333 153.526 10.84 153.526 10.08C153.526 9.30667 153.279 8.70667 152.786 8.28C152.292 7.85333 151.546 7.64 150.546 7.64H146.466L147.906 6.1V14.04ZM165.723 9.6C167.416 9.6 168.723 9.98 169.643 10.74C170.563 11.4867 171.023 12.6133 171.023 14.12C171.023 15.72 170.51 16.9333 169.483 17.76C168.47 18.5867 167.063 19 165.263 19H158.943V5H162.163V9.6H165.723ZM165.083 16.6C165.91 16.6 166.563 16.3933 167.043 15.98C167.523 15.5667 167.763 14.9667 167.763 14.18C167.763 13.4067 167.523 12.8533 167.043 12.52C166.576 12.1733 165.923 12 165.083 12H162.163V16.6H165.083ZM172.803 19V5H176.023V19H172.803Z" fill="white"/>
</g>
<g filter="url(#filter1_d_469_38)">
<path d="M4 27L1169 27" stroke="white" stroke-width="3"/>
</g>
<defs>
<filter id="filter0_d_469_38" x="1.73999" y="5" width="178.283" height="22" filterUnits="userSpaceOnUse" color-interpolation-filters="sRGB">
<feFlood flood-opacity="0" result="BackgroundImageFix"/>
<feColorMatrix in="SourceAlpha" type="matrix" values="0 0 0 0 0 0 0 0 0 0 0 0 0 0 0 0 0 0 127 0" result="hardAlpha"/>
<feOffset dy="4"/>
<feGaussianBlur stdDeviation="2"/>
<feComposite in2="hardAlpha" operator="out"/>
<feColorMatrix type="matrix" values="0 0 0 0 0 0 0 0 0 0 0 0 0 0 0 0 0 0 0.25 0"/>
<feBlend mode="normal" in2="BackgroundImageFix" result="effect1_dropShadow_469_38"/>
<feBlend mode="normal" in="SourceGraphic" in2="effect1_dropShadow_469_38" result="shape"/>
</filter>
<filter id="filter1_d_469_38" x="0" y="25.5" width="1173" height="11" filterUnits="userSpaceOnUse" color-interpolation-filters="sRGB">
<feFlood flood-opacity="0" result="BackgroundImageFix"/>
<feColorMatrix in="SourceAlpha" type="matrix" values="0 0 0 0 0 0 0 0 0 0 0 0 0 0 0 0 0 0 127 0" result="hardAlpha"/>
<feOffset dy="4"/>
<feGaussianBlur stdDeviation="2"/>
<feComposite in2="hardAlpha" operator="out"/>
<feColorMatrix type="matrix" values="0 0 0 0 0 0 0 0 0 0 0 0 0 0 0 0 0 0 0.25 0"/>
<feBlend mode="normal" in2="BackgroundImageFix" result="effect1_dropShadow_469_38"/>
<feBlend mode="normal" in="SourceGraphic" in2="effect1_dropShadow_469_38" result="shape"/>
</filter>
</defs>
</svg>
