<svg width="88" height="956" viewBox="0 0 88 956" fill="none" xmlns="http://www.w3.org/2000/svg">
<g filter="url(#filter0_d_378_57)">
<rect width="88" height="964.495" fill="#17181C"/>
</g>
<g filter="url(#filter1_d_378_57)">
<path d="M6 29C6 17.9543 14.9543 9 26 9H59C70.0457 9 79 17.9543 79 29V62C79 73.0457 70.0457 82 59 82H26C14.9543 82 6 73.0457 6 62V29Z" fill="#D9D9D9" fill-opacity="0.12" shape-rendering="crispEdges"/>
</g>
<g filter="url(#filter2_d_378_57)">
<path d="M7 895C7 883.954 15.9543 875 27 875H60C71.0457 875 80 883.954 80 895V928C80 939.046 71.0457 948 60 948H27C15.9543 948 7 939.046 7 928V895Z" fill="#D9D9D9" fill-opacity="0.12" shape-rendering="crispEdges"/>
</g>
<g filter="url(#filter3_d_378_57)">
<path d="M7 207C7 195.954 15.9543 187 27 187H60C71.0457 187 80 195.954 80 207V571C80 582.046 71.0457 591 60 591H27C15.9543 591 7 582.046 7 571V207Z" fill="#D9D9D9" fill-opacity="0.12" shape-rendering="crispEdges"/>
</g>
<defs>
<filter id="filter0_d_378_57" x="-4" y="0" width="96" height="972.495" filterUnits="userSpaceOnUse" color-interpolation-filters="sRGB">
<feFlood flood-opacity="0" result="BackgroundImageFix"/>
<feColorMatrix in="SourceAlpha" type="matrix" values="0 0 0 0 0 0 0 0 0 0 0 0 0 0 0 0 0 0 127 0" result="hardAlpha"/>
<feOffset dy="4"/>
<feGaussianBlur stdDeviation="2"/>
<feComposite in2="hardAlpha" operator="out"/>
<feColorMatrix type="matrix" values="0 0 0 0 0 0 0 0 0 0 0 0 0 0 0 0 0 0 0.25 0"/>
<feBlend mode="normal" in2="BackgroundImageFix" result="effect1_dropShadow_378_57"/>
<feBlend mode="normal" in="SourceGraphic" in2="effect1_dropShadow_378_57" result="shape"/>
</filter>
<filter id="filter1_d_378_57" x="6" y="9" width="81" height="81" filterUnits="userSpaceOnUse" color-interpolation-filters="sRGB">
<feFlood flood-opacity="0" result="BackgroundImageFix"/>
<feColorMatrix in="SourceAlpha" type="matrix" values="0 0 0 0 0 0 0 0 0 0 0 0 0 0 0 0 0 0 127 0" result="hardAlpha"/>
<feOffset dx="4" dy="4"/>
<feGaussianBlur stdDeviation="2"/>
<feComposite in2="hardAlpha" operator="out"/>
<feColorMatrix type="matrix" values="0 0 0 0 0 0 0 0 0 0 0 0 0 0 0 0 0 0 0.25 0"/>
<feBlend mode="normal" in2="BackgroundImageFix" result="effect1_dropShadow_378_57"/>
<feBlend mode="normal" in="SourceGraphic" in2="effect1_dropShadow_378_57" result="shape"/>
</filter>
<filter id="filter2_d_378_57" x="7" y="875" width="81" height="81" filterUnits="userSpaceOnUse" color-interpolation-filters="sRGB">
<feFlood flood-opacity="0" result="BackgroundImageFix"/>
<feColorMatrix in="SourceAlpha" type="matrix" values="0 0 0 0 0 0 0 0 0 0 0 0 0 0 0 0 0 0 127 0" result="hardAlpha"/>
<feOffset dx="4" dy="4"/>
<feGaussianBlur stdDeviation="2"/>
<feComposite in2="hardAlpha" operator="out"/>
<feColorMatrix type="matrix" values="0 0 0 0 0 0 0 0 0 0 0 0 0 0 0 0 0 0 0.25 0"/>
<feBlend mode="normal" in2="BackgroundImageFix" result="effect1_dropShadow_378_57"/>
<feBlend mode="normal" in="SourceGraphic" in2="effect1_dropShadow_378_57" result="shape"/>
</filter>
<filter id="filter3_d_378_57" x="7" y="187" width="81" height="412" filterUnits="userSpaceOnUse" color-interpolation-filters="sRGB">
<feFlood flood-opacity="0" result="BackgroundImageFix"/>
<feColorMatrix in="SourceAlpha" type="matrix" values="0 0 0 0 0 0 0 0 0 0 0 0 0 0 0 0 0 0 127 0" result="hardAlpha"/>
<feOffset dx="4" dy="4"/>
<feGaussianBlur stdDeviation="2"/>
<feComposite in2="hardAlpha" operator="out"/>
<feColorMatrix type="matrix" values="0 0 0 0 0 0 0 0 0 0 0 0 0 0 0 0 0 0 0.25 0"/>
<feBlend mode="normal" in2="BackgroundImageFix" result="effect1_dropShadow_378_57"/>
<feBlend mode="normal" in="SourceGraphic" in2="effect1_dropShadow_378_57" result="shape"/>
</filter>
</defs>
</svg>
