<svg width="59" height="58" viewBox="0 0 59 58" fill="none" xmlns="http://www.w3.org/2000/svg">
<g filter="url(#filter0_d_362_99)">
<path d="M6.53125 20.5327L13.3438 23.4389C14.1146 21.9181 14.9375 20.4181 15.8125 18.9389C16.6875 17.4598 17.625 16.0327 18.625 14.6577L13.4688 13.5952L6.53125 20.5327ZM16.25 25.6264L24.5625 33.9389C27.125 32.7306 29.4531 31.4337 31.5469 30.0483C33.6406 28.6629 35.3333 27.3244 36.625 26.0327C39.9583 22.6994 42.401 19.2671 43.9531 15.7358C45.5052 12.2046 46.3646 8.17852 46.5312 3.65768C42.0104 3.82435 37.9844 4.67852 34.4531 6.22018C30.9219 7.76185 27.4896 10.1994 24.1562 13.5327C22.8646 14.8244 21.526 16.5223 20.1406 18.6264C18.7552 20.7306 17.4583 23.0639 16.25 25.6264ZM31 19.1889C30.1667 18.3764 29.75 17.3712 29.75 16.1733C29.75 14.9754 30.1667 13.9598 31 13.1264C31.8125 12.2931 32.8177 11.8764 34.0156 11.8764C35.2135 11.8764 36.2292 12.2931 37.0625 13.1264C37.875 13.9598 38.2812 14.9754 38.2812 16.1733C38.2812 17.3712 37.875 18.3764 37.0625 19.1889C36.2292 20.0223 35.2135 20.4389 34.0156 20.4389C32.8177 20.4389 31.8125 20.0223 31 19.1889ZM29.6562 43.6577L36.5938 36.7202L35.5312 31.5639C34.1562 32.5431 32.7292 33.4754 31.25 34.3608C29.7708 35.2462 28.2708 36.0744 26.75 36.8452L29.6562 43.6577ZM50.0625 0.126434C50.5 5.52227 49.8125 10.5952 48 15.3452C46.1875 20.0952 43.2708 24.4806 39.25 28.5014L38.9844 28.7671L38.7188 29.0327L40.0938 36.0014C40.2188 36.6056 40.1875 37.1889 40 37.7514C39.8125 38.3139 39.5104 38.8139 39.0938 39.2514L28.4688 49.9389L23.1875 37.6264L12.5312 27.0014L0.25 21.7202L10.9688 11.0952C11.3854 10.6577 11.875 10.3452 12.4375 10.1577C13 9.97018 13.5833 9.93893 14.1875 10.0639L21.1562 11.4702C21.2396 11.3869 21.3229 11.3087 21.4062 11.2358C21.4896 11.1629 21.5833 11.0848 21.6875 11.0014C25.7083 6.9806 30.0938 4.05352 34.8438 2.22018C39.5938 0.38685 44.6667 -0.311067 50.0625 0.126434ZM4.59375 34.4389C6.05208 32.9806 7.81771 32.2514 9.89062 32.2514C11.9635 32.2514 13.7188 32.9598 15.1562 34.3764C16.5938 35.8348 17.3073 37.6004 17.2969 39.6733C17.2865 41.7462 16.5625 43.5014 15.125 44.9389C14.0208 46.0431 12.3542 46.9441 10.125 47.6421C7.89583 48.34 4.52083 48.991 0 49.5952C0.625 45.0744 1.27083 41.6941 1.9375 39.4546C2.60417 37.215 3.48958 35.5431 4.59375 34.4389ZM7.125 37.0327C6.5 37.6994 5.96354 38.7046 5.51562 40.0483C5.06771 41.3921 4.66667 43.1264 4.3125 45.2514C6.4375 44.8973 8.17188 44.4962 9.51562 44.0483C10.8594 43.6004 11.8646 43.0639 12.5312 42.4389C13.3229 41.7514 13.7292 40.8556 13.75 39.7514C13.7708 38.6473 13.4062 37.6994 12.6562 36.9077C11.8438 36.1577 10.8906 35.7931 9.79688 35.8139C8.70312 35.8348 7.8125 36.241 7.125 37.0327Z" fill="#EF4444"/>
</g>
<defs>
<filter id="filter0_d_362_99" x="0" y="0" width="58.1901" height="57.9389" filterUnits="userSpaceOnUse" color-interpolation-filters="sRGB">
<feFlood flood-opacity="0" result="BackgroundImageFix"/>
<feColorMatrix in="SourceAlpha" type="matrix" values="0 0 0 0 0 0 0 0 0 0 0 0 0 0 0 0 0 0 127 0" result="hardAlpha"/>
<feOffset dx="4" dy="4"/>
<feGaussianBlur stdDeviation="2"/>
<feComposite in2="hardAlpha" operator="out"/>
<feColorMatrix type="matrix" values="0 0 0 0 0 0 0 0 0 0 0 0 0 0 0 0 0 0 0.25 0"/>
<feBlend mode="normal" in2="BackgroundImageFix" result="effect1_dropShadow_362_99"/>
<feBlend mode="normal" in="SourceGraphic" in2="effect1_dropShadow_362_99" result="shape"/>
</filter>
</defs>
</svg>
