<svg width="90" height="34" viewBox="0 0 90 34" fill="none" xmlns="http://www.w3.org/2000/svg">
<g filter="url(#filter0_d_397_8)">
<path d="M13.44 6.776H7.446L7.464 17H4.566V4.4H13.458L13.44 6.776ZM21.7767 7.316V17H18.9687V9.62H15.9087L15.8187 11.33C15.7707 12.602 15.6507 13.658 15.4587 14.498C15.2667 15.338 14.9547 15.998 14.5227 16.478C14.0907 16.958 13.4907 17.198 12.7227 17.198C12.3147 17.198 11.8287 17.126 11.2647 16.982L11.4087 14.678C11.6007 14.702 11.7387 14.714 11.8227 14.714C12.2427 14.714 12.5547 14.564 12.7587 14.264C12.9747 13.952 13.1187 13.562 13.1907 13.094C13.2627 12.614 13.3167 11.984 13.3527 11.204L13.4967 7.316H21.7767ZM34.251 7.316V17H31.569V15.884C30.873 16.724 29.865 17.144 28.545 17.144C27.633 17.144 26.805 16.94 26.061 16.532C25.329 16.124 24.753 15.542 24.333 14.786C23.913 14.03 23.703 13.154 23.703 12.158C23.703 11.162 23.913 10.286 24.333 9.53C24.753 8.774 25.329 8.192 26.061 7.784C26.805 7.376 27.633 7.172 28.545 7.172C29.781 7.172 30.747 7.562 31.443 8.342V7.316H34.251ZM29.031 14.84C29.739 14.84 30.327 14.6 30.795 14.12C31.263 13.628 31.497 12.974 31.497 12.158C31.497 11.342 31.263 10.694 30.795 10.214C30.327 9.722 29.739 9.476 29.031 9.476C28.311 9.476 27.717 9.722 27.249 10.214C26.781 10.694 26.547 11.342 26.547 12.158C26.547 12.974 26.781 13.628 27.249 14.12C27.717 14.6 28.311 14.84 29.031 14.84ZM44.3027 11.942C45.4427 12.326 46.0127 13.094 46.0127 14.246C46.0127 15.122 45.6827 15.8 45.0227 16.28C44.3627 16.76 43.3787 17 42.0707 17H36.9047V7.316H41.8547C43.0667 7.316 44.0147 7.538 44.6987 7.982C45.3827 8.414 45.7247 9.026 45.7247 9.818C45.7247 10.298 45.5987 10.724 45.3467 11.096C45.1067 11.456 44.7587 11.738 44.3027 11.942ZM39.4787 11.294H41.6027C42.5867 11.294 43.0787 10.946 43.0787 10.25C43.0787 9.566 42.5867 9.224 41.6027 9.224H39.4787V11.294ZM41.8367 15.092C42.8687 15.092 43.3847 14.738 43.3847 14.03C43.3847 13.658 43.2647 13.388 43.0247 13.22C42.7847 13.04 42.4067 12.95 41.8907 12.95H39.4787V15.092H41.8367ZM48.102 7.316H50.892V11.096H55.104V7.316H57.912V17H55.104V13.382H50.892V17H48.102V7.316ZM70.374 7.316V17H67.692V15.884C66.996 16.724 65.988 17.144 64.668 17.144C63.756 17.144 62.928 16.94 62.184 16.532C61.452 16.124 60.876 15.542 60.456 14.786C60.036 14.03 59.826 13.154 59.826 12.158C59.826 11.162 60.036 10.286 60.456 9.53C60.876 8.774 61.452 8.192 62.184 7.784C62.928 7.376 63.756 7.172 64.668 7.172C65.904 7.172 66.87 7.562 67.566 8.342V7.316H70.374ZM65.154 14.84C65.862 14.84 66.45 14.6 66.918 14.12C67.386 13.628 67.62 12.974 67.62 12.158C67.62 11.342 67.386 10.694 66.918 10.214C66.45 9.722 65.862 9.476 65.154 9.476C64.434 9.476 63.84 9.722 63.372 10.214C62.904 10.694 62.67 11.342 62.67 12.158C62.67 12.974 62.904 13.628 63.372 14.12C63.84 14.6 64.434 14.84 65.154 14.84ZM81.6317 7.316V17H79.1297V14.228H77.0597L75.2237 17H72.2357L74.4497 13.832C73.7777 13.568 73.2617 13.19 72.9017 12.698C72.5537 12.194 72.3797 11.588 72.3797 10.88C72.3797 9.74 72.7877 8.864 73.6037 8.252C74.4317 7.628 75.5657 7.316 77.0057 7.316H81.6317ZM77.0597 9.602C76.4597 9.602 76.0037 9.71 75.6917 9.926C75.3917 10.142 75.2417 10.49 75.2417 10.97C75.2417 11.45 75.3857 11.804 75.6737 12.032C75.9737 12.248 76.4237 12.356 77.0237 12.356H79.1297V9.602H77.0597Z" fill="#EF4444"/>
</g>
<g filter="url(#filter1_d_397_8)">
<path d="M5 24H82.0621" stroke="#EF4444" stroke-width="2.3"/>
</g>
<defs>
<filter id="filter0_d_397_8" x="0.565918" y="4.4" width="85.0659" height="20.798" filterUnits="userSpaceOnUse" color-interpolation-filters="sRGB">
<feFlood flood-opacity="0" result="BackgroundImageFix"/>
<feColorMatrix in="SourceAlpha" type="matrix" values="0 0 0 0 0 0 0 0 0 0 0 0 0 0 0 0 0 0 127 0" result="hardAlpha"/>
<feOffset dy="4"/>
<feGaussianBlur stdDeviation="2"/>
<feComposite in2="hardAlpha" operator="out"/>
<feColorMatrix type="matrix" values="0 0 0 0 0 0 0 0 0 0 0 0 0 0 0 0 0 0 0.25 0"/>
<feBlend mode="normal" in2="BackgroundImageFix" result="effect1_dropShadow_397_8"/>
<feBlend mode="normal" in="SourceGraphic" in2="effect1_dropShadow_397_8" result="shape"/>
</filter>
<filter id="filter1_d_397_8" x="1" y="22.85" width="85.062" height="10.3" filterUnits="userSpaceOnUse" color-interpolation-filters="sRGB">
<feFlood flood-opacity="0" result="BackgroundImageFix"/>
<feColorMatrix in="SourceAlpha" type="matrix" values="0 0 0 0 0 0 0 0 0 0 0 0 0 0 0 0 0 0 127 0" result="hardAlpha"/>
<feOffset dy="4"/>
<feGaussianBlur stdDeviation="2"/>
<feComposite in2="hardAlpha" operator="out"/>
<feColorMatrix type="matrix" values="0 0 0 0 0 0 0 0 0 0 0 0 0 0 0 0 0 0 0.25 0"/>
<feBlend mode="normal" in2="BackgroundImageFix" result="effect1_dropShadow_397_8"/>
<feBlend mode="normal" in="SourceGraphic" in2="effect1_dropShadow_397_8" result="shape"/>
</filter>
</defs>
</svg>
