<svg width="278" height="286" viewBox="0 0 278 286" fill="none" xmlns="http://www.w3.org/2000/svg">
<g filter="url(#filter0_i_406_257)">
<path d="M95.4233 286C68.9169 286 46.3863 276.626 27.8318 257.877C9.27727 239.128 0 216.513 0 190.031C0 163.55 9.17124 141.146 27.5137 122.821C45.8562 104.496 68.2807 95.3333 94.7872 95.3333C97.3452 95.3333 99.7083 93.9663 100.983 91.7487L107.51 80.3978C110.055 75.737 113.872 72.7181 118.961 71.3411C124.05 69.9641 128.928 70.6526 133.593 73.4067L140.525 77.3316C141.985 78.1577 143.836 77.6884 144.725 76.2667C149.603 67.157 157.236 61.2252 167.627 58.4711C178.018 55.717 187.772 56.9881 196.89 62.2844L199.277 63.6471C204.097 66.3989 205.754 72.5497 202.969 77.3504L200.283 81.978C197.525 86.7311 191.449 88.3681 186.676 85.6436L184.167 84.2111C181.198 82.5163 177.965 82.1456 174.466 83.0989C170.967 84.0522 168.369 86.0119 166.673 88.9778C165.804 90.3661 166.263 92.198 167.683 93.0137L177.805 98.8289C182.259 101.371 185.174 105.184 186.553 110.269C187.931 115.353 187.348 120.12 184.803 124.569L179.162 134.589C177.348 137.81 177.499 141.747 179.288 144.982C182.659 151.077 185.293 157.46 187.189 164.132C189.627 172.712 190.847 181.557 190.847 190.667C190.847 217.148 181.569 239.657 163.015 258.194C144.46 276.731 121.93 286 95.4233 286ZM95.4233 260.578C114.72 260.578 131.207 253.746 144.884 240.081C158.562 226.417 165.4 209.945 165.4 190.667C165.4 184.099 164.499 177.638 162.697 171.282C160.894 164.927 158.191 158.889 154.586 153.169L149.58 145.282C147.575 142.124 147.501 138.111 149.387 134.881L154.604 125.944C157.4 121.156 155.766 115.007 150.962 112.238L135.21 103.159C130.444 100.412 124.355 102.03 121.581 106.781L116.13 116.116C114.338 119.186 111.05 121.073 107.495 121.073H99.2403C79.3074 121.073 61.9722 127.429 47.2346 140.14C32.497 152.851 25.1281 169.481 25.1281 190.031C25.1281 209.521 31.9668 226.152 45.6442 239.922C59.3215 253.693 75.9146 260.578 95.4233 260.578ZM249.831 108.044C244.308 108.044 239.831 103.567 239.831 98.0444V92.6222C239.831 87.0994 244.308 82.6222 249.831 82.6222H268C273.523 82.6222 278 87.0994 278 92.6222V98.0444C278 103.567 273.523 108.044 268 108.044H249.831ZM179.854 38.1333C174.331 38.1333 169.854 33.6562 169.854 28.1333V10C169.854 4.47716 174.331 0 179.854 0H185.3C190.823 0 195.3 4.47715 195.3 10V28.1333C195.3 33.6562 190.823 38.1333 185.3 38.1333H179.854ZM238.946 56.8123C235.042 60.7131 228.715 60.7131 224.811 56.8123L221.147 53.1522C217.238 49.2462 217.238 42.9094 221.147 39.0034L234.035 26.1277C237.94 22.2269 244.266 22.2269 248.171 26.1277L251.834 29.7878C255.744 33.6938 255.744 40.0306 251.834 43.9366L238.946 56.8123Z" fill="#FEFEFE"/>
</g>
<defs>
<filter id="filter0_i_406_257" x="0" y="0" width="282" height="290" filterUnits="userSpaceOnUse" color-interpolation-filters="sRGB">
<feFlood flood-opacity="0" result="BackgroundImageFix"/>
<feBlend mode="normal" in="SourceGraphic" in2="BackgroundImageFix" result="shape"/>
<feColorMatrix in="SourceAlpha" type="matrix" values="0 0 0 0 0 0 0 0 0 0 0 0 0 0 0 0 0 0 127 0" result="hardAlpha"/>
<feOffset dx="4" dy="4"/>
<feGaussianBlur stdDeviation="2"/>
<feComposite in2="hardAlpha" operator="arithmetic" k2="-1" k3="1"/>
<feColorMatrix type="matrix" values="0 0 0 0 0 0 0 0 0 0 0 0 0 0 0 0 0 0 0.25 0"/>
<feBlend mode="normal" in2="shape" result="effect1_innerShadow_406_257"/>
</filter>
</defs>
</svg>
