<svg width="60" height="60" viewBox="0 0 60 60" fill="none" xmlns="http://www.w3.org/2000/svg">
<g id="Vector" filter="url(#filter0_d_362_99)">
<path d="M6.76677 21.3801L13.8249 24.4063C14.6236 22.8227 15.4762 21.2608 16.3827 19.7206C17.2893 18.1804 18.2606 16.6944 19.2966 15.2626L13.9544 14.1563L6.76677 21.3801ZM16.836 26.6841L25.4482 35.3397C28.1031 34.0814 30.5152 32.731 32.6845 31.2885C34.8537 29.8459 36.6075 28.4521 37.9457 27.1071C41.3993 23.6362 43.9301 20.0622 45.5381 16.3853C47.1462 12.7083 48.0365 8.51606 48.2092 3.80864C43.5253 3.98219 39.3541 4.87161 35.6955 6.4769C32.0369 8.08219 28.4809 10.6203 25.0273 14.0912C23.6891 15.4362 22.3023 17.2042 20.8669 19.3952C19.4315 21.5862 18.0879 24.0158 16.836 26.6841ZM32.1179 19.9809C31.2545 19.1349 30.8228 18.0882 30.8228 16.8408C30.8228 15.5935 31.2545 14.5359 32.1179 13.6682C32.9597 12.8005 34.0011 12.3666 35.2423 12.3666C36.4834 12.3666 37.5356 12.8005 38.399 13.6682C39.2408 14.5359 39.6617 15.5935 39.6617 16.8408C39.6617 18.0882 39.2408 19.1349 38.399 19.9809C37.5356 20.8486 36.4834 21.2825 35.2423 21.2825C34.0011 21.2825 32.9597 20.8486 32.1179 19.9809ZM30.7257 45.4595L37.9133 38.2357L36.8125 32.8666C35.388 33.8862 33.9094 34.857 32.3769 35.7789C30.8444 36.7009 29.2903 37.5632 27.7146 38.3658L30.7257 45.4595ZM51.8678 0.131652C52.3211 5.75018 51.6088 11.0325 49.7309 15.9785C47.8531 20.9245 44.8312 25.491 40.6654 29.6777L40.3902 29.9543L40.115 30.2309L41.5396 37.4873C41.6691 38.1164 41.6367 38.7238 41.4424 39.3095C41.2482 39.8952 40.9352 40.4159 40.5035 40.8714L29.4954 52L24.0237 39.1793L12.9831 28.1158L0.259015 22.6166L11.3643 11.5531C11.796 11.0975 12.3032 10.7721 12.886 10.5769C13.4688 10.3817 14.0732 10.3491 14.6991 10.4793L21.9192 11.9436C22.0055 11.8568 22.0918 11.7755 22.1782 11.6995C22.2645 11.6236 22.3616 11.5423 22.4696 11.4555C26.6354 7.2687 31.179 4.22081 36.1002 2.31181C41.0215 0.402816 46.2774 -0.323905 51.8678 0.131652ZM4.7594 35.8603C6.27033 34.3418 8.09962 33.5825 10.2473 33.5825C12.395 33.5825 14.2135 34.3201 15.7028 35.7952C17.1921 37.3137 17.9314 39.1522 17.9206 41.3107C17.9098 43.4692 17.1598 45.2968 15.6704 46.7936C14.5264 47.9434 12.7997 48.8816 10.4901 49.6083C8.18056 50.335 4.68386 51.013 0 51.6421C0.647538 46.9346 1.31666 43.4149 2.00737 41.0829C2.69808 38.7509 3.61542 37.01 4.7594 35.8603ZM7.38193 38.5611C6.7344 39.2553 6.17859 40.302 5.71452 41.7012C5.25045 43.1004 4.83495 44.9063 4.46801 47.119C6.66964 46.7503 8.46656 46.3327 9.85877 45.8663C11.251 45.3999 12.2924 44.8413 12.9831 44.1905C13.8034 43.4746 14.2243 42.5418 14.2458 41.392C14.2674 40.2423 13.8897 39.2553 13.1126 38.4309C12.2708 37.65 11.2833 37.2703 10.1502 37.292C9.01697 37.3137 8.09422 37.7367 7.38193 38.5611Z" fill="#EF4444"/>
</g>
<defs>
<filter id="filter0_d_362_99" x="0" y="0" width="60" height="60" filterUnits="userSpaceOnUse" color-interpolation-filters="sRGB">
<feFlood flood-opacity="0" result="BackgroundImageFix"/>
<feColorMatrix in="SourceAlpha" type="matrix" values="0 0 0 0 0 0 0 0 0 0 0 0 0 0 0 0 0 0 127 0" result="hardAlpha"/>
<feOffset dx="4" dy="4"/>
<feGaussianBlur stdDeviation="2"/>
<feComposite in2="hardAlpha" operator="out"/>
<feColorMatrix type="matrix" values="0 0 0 0 0 0 0 0 0 0 0 0 0 0 0 0 0 0 0.25 0"/>
<feBlend mode="normal" in2="BackgroundImageFix" result="effect1_dropShadow_362_99"/>
<feBlend mode="normal" in="SourceGraphic" in2="effect1_dropShadow_362_99" result="shape"/>
</filter>
</defs>
</svg>
