<svg width="66" height="66" viewBox="0 0 66 66" fill="none" xmlns="http://www.w3.org/2000/svg">
<g id="Vector" filter="url(#filter0_i_406_273)">
<path d="M8.5886 27.1363L17.547 30.9772C18.5607 28.9673 19.6428 26.9849 20.7934 25.03C21.9441 23.0751 23.1769 21.189 24.4919 19.3718L17.7114 17.9676L8.5886 27.1363ZM21.3688 33.8683L32.2997 44.8542C35.6694 43.2572 38.7309 41.5433 41.4841 39.7123C44.2374 37.8813 46.4633 36.1122 48.1619 34.4052C52.5452 29.9998 55.7574 25.4636 57.7984 20.7967C59.8394 16.1297 60.9694 10.8088 61.1886 4.83405C55.2437 5.05432 49.9495 6.18319 45.3059 8.22068C40.6623 10.2582 36.1488 13.4796 31.7655 17.885C30.0669 19.5921 28.3068 21.8361 26.4849 24.617C24.6631 27.3979 22.9577 30.4816 21.3688 33.8683ZM40.765 25.3604C39.6692 24.2866 39.1213 22.9581 39.1213 21.3749C39.1213 19.7917 39.6692 18.4494 40.765 17.3481C41.8335 16.2467 43.1553 15.6961 44.7306 15.6961C46.3058 15.6961 47.6414 16.2467 48.7372 17.3481C49.8056 18.4494 50.3399 19.7917 50.3399 21.3749C50.3399 22.9581 49.8056 24.2866 48.7372 25.3604C47.6414 26.4617 46.3058 27.0124 44.7306 27.0124C43.1553 27.0124 41.8335 26.4617 40.765 25.3604ZM38.998 57.6986L48.1208 48.5299L46.7236 41.7153C44.9155 43.0094 43.0389 44.2416 41.0938 45.4117C39.1487 46.5819 37.1762 47.6764 35.1763 48.6951L38.998 57.6986ZM65.8322 0.167096C66.4075 7.29831 65.5035 14.0027 63.12 20.2804C60.7366 26.5581 56.9012 32.3539 51.6138 37.6679L51.2645 38.019L50.9152 38.37L52.7233 47.58C52.8877 48.3785 52.8466 49.1494 52.6 49.8928C52.3535 50.6362 51.9562 51.297 51.4083 51.8753L37.4364 66L30.4916 49.7276L16.4786 35.6855L0.32875 28.7057L14.4239 14.6636C14.9718 14.0853 15.6156 13.6723 16.3553 13.4245C17.095 13.1767 17.8621 13.1354 18.6566 13.3006L27.8205 15.1592C27.9301 15.049 28.0396 14.9458 28.1492 14.8494C28.2588 14.753 28.3821 14.6498 28.5191 14.5396C33.8065 9.22566 39.5733 5.35719 45.8195 2.93423C52.0658 0.511266 58.7367 -0.41111 65.8322 0.167096ZM6.04078 45.515C7.95849 43.5876 10.2803 42.624 13.0062 42.624C15.7321 42.624 18.0402 43.5601 19.9305 45.4324C21.8208 47.3597 22.7591 49.6932 22.7454 52.4328C22.7317 55.1724 21.7797 57.4921 19.8894 59.3919C18.4374 60.8512 16.2457 62.042 13.3144 62.9644C10.383 63.8868 5.9449 64.7472 0 65.5457C0.821875 59.5709 1.67115 55.1036 2.54781 52.1437C3.42448 49.1838 4.5888 46.9743 6.04078 45.515ZM9.36938 48.9429C8.5475 49.824 7.84206 51.1525 7.25305 52.9284C6.66404 54.7043 6.13667 56.9965 5.67094 59.8049C8.46531 59.3369 10.746 58.8068 12.5131 58.2149C14.2801 57.6229 15.6019 56.9139 16.4786 56.0879C17.5196 55.1793 18.0539 53.9953 18.0813 52.5361C18.1087 51.0768 17.6292 49.824 16.643 48.7777C15.5745 47.7865 14.3212 47.3047 12.8829 47.3322C11.4446 47.3597 10.2734 47.8966 9.36938 48.9429Z" fill="white"/>
</g>
<defs>
<filter id="filter0_i_406_273" x="0" y="0" width="70" height="70" filterUnits="userSpaceOnUse" color-interpolation-filters="sRGB">
<feFlood flood-opacity="0" result="BackgroundImageFix"/>
<feBlend mode="normal" in="SourceGraphic" in2="BackgroundImageFix" result="shape"/>
<feColorMatrix in="SourceAlpha" type="matrix" values="0 0 0 0 0 0 0 0 0 0 0 0 0 0 0 0 0 0 127 0" result="hardAlpha"/>
<feOffset dx="4" dy="4"/>
<feGaussianBlur stdDeviation="2"/>
<feComposite in2="hardAlpha" operator="arithmetic" k2="-1" k3="1"/>
<feColorMatrix type="matrix" values="0 0 0 0 0 0 0 0 0 0 0 0 0 0 0 0 0 0 0.25 0"/>
<feBlend mode="normal" in2="shape" result="effect1_innerShadow_406_273"/>
</filter>
</defs>
</svg>
