<svg width="60" height="60" viewBox="0 0 60 60" fill="none" xmlns="http://www.w3.org/2000/svg">
<g id="Vector" filter="url(#filter0_d_362_96)">
<path d="M17.849 52C12.8909 52 8.67658 50.2956 5.20595 46.8867C1.73532 43.4778 0 39.3659 0 34.5511C0 29.7363 1.71548 25.663 5.14645 22.3311C8.57742 18.9993 12.7719 17.3333 17.73 17.3333C18.2094 17.3333 18.6532 17.0802 18.8972 16.6676L20.1098 14.6178C20.5858 13.7704 21.2998 13.2215 22.2517 12.9711C23.2037 12.7207 24.1159 12.8459 24.9886 13.3467L26.2919 14.0639C26.563 14.2131 26.9034 14.1269 27.0709 13.8667C27.9832 12.2104 29.4111 11.1319 31.3547 10.6311C33.2982 10.1304 35.1228 10.3615 36.8284 11.3244C37.9677 11.9567 38.3544 13.412 37.6866 14.5307C37.0443 15.6066 35.6607 15.9838 34.5651 15.3758L34.4485 15.3111C33.8932 15.003 33.2883 14.9356 32.6339 15.1089C31.9794 15.2822 31.4935 15.6385 31.1762 16.1778C31.015 16.4282 31.0986 16.7628 31.3586 16.908L33.2586 17.9689C34.0915 18.4311 34.6369 19.1244 34.8947 20.0489C35.1526 20.9733 35.0435 21.84 34.5675 22.6489C33.583 24.3486 33.7126 26.4332 34.4571 28.251C34.67 28.771 34.8556 29.3014 35.0137 29.8422C35.4699 31.4022 35.6979 33.0104 35.6979 34.6667C35.6979 39.4815 33.9626 43.5741 30.492 46.9444C27.0214 50.3148 22.807 52 17.849 52ZM17.849 47.3778C21.4584 47.3778 24.5423 46.1356 27.1007 43.6511C29.659 41.1667 30.9382 38.1719 30.9382 34.6667C30.9382 33.4726 30.7696 32.2978 30.4325 31.1422C30.0953 29.9867 29.5896 28.8889 28.9153 27.8489L28.3715 27.0161C27.758 26.0766 27.7353 24.8692 28.3131 23.9073C29.1638 22.4912 28.6753 20.6522 27.2342 19.8448L26.3537 19.3515C24.8639 18.5169 22.9806 19.017 22.1013 20.4809C21.5302 21.4317 20.5023 22.0133 19.3931 22.0133H18.5629C14.8345 22.0133 11.5919 23.1689 8.83524 25.48C6.07857 27.7911 4.70023 30.8148 4.70023 34.5511C4.70023 38.0948 5.9794 41.1185 8.53776 43.6222C11.0961 46.1259 14.1998 47.3778 17.849 47.3778ZM47.1715 19.6444C45.8951 19.6444 44.8604 18.6097 44.8604 17.3333C44.8604 16.0569 45.8951 15.0222 47.1715 15.0222H49.6889C50.9653 15.0222 52 16.0569 52 17.3333C52 18.6097 50.9653 19.6444 49.6889 19.6444H47.1715ZM34.151 6.93333C32.8367 6.93333 31.7712 5.86783 31.7712 4.55347V2.37986C31.7712 1.0655 32.8367 0 34.151 0C35.4654 0 36.5309 1.0655 36.5309 2.37986V4.55347C36.5309 5.86783 35.4654 6.93333 34.151 6.93333ZM44.9901 10.043C44.0894 10.9176 42.6566 10.9176 41.7559 10.043C40.8171 9.13131 40.8171 7.62425 41.7559 6.71259L43.4813 5.03703C44.382 4.1624 45.8148 4.1624 46.7155 5.03703C47.6543 5.94869 47.6543 7.45575 46.7155 8.36741L44.9901 10.043Z" fill="#EF4444"/>
</g>
<defs>
<filter id="filter0_d_362_96" x="0" y="0" width="60" height="60" filterUnits="userSpaceOnUse" color-interpolation-filters="sRGB">
<feFlood flood-opacity="0" result="BackgroundImageFix"/>
<feColorMatrix in="SourceAlpha" type="matrix" values="0 0 0 0 0 0 0 0 0 0 0 0 0 0 0 0 0 0 127 0" result="hardAlpha"/>
<feOffset dx="4" dy="4"/>
<feGaussianBlur stdDeviation="2"/>
<feComposite in2="hardAlpha" operator="out"/>
<feColorMatrix type="matrix" values="0 0 0 0 0 0 0 0 0 0 0 0 0 0 0 0 0 0 0.25 0"/>
<feBlend mode="normal" in2="BackgroundImageFix" result="effect1_dropShadow_362_96"/>
<feBlend mode="normal" in="SourceGraphic" in2="effect1_dropShadow_362_96" result="shape"/>
</filter>
</defs>
</svg>
