<svg width="81" height="81" viewBox="0 0 81 81" fill="none" xmlns="http://www.w3.org/2000/svg">
<g id="Group 7">
<g id="Rectangle 86" filter="url(#filter0_d_457_36)">
<path d="M0 20C0 8.95431 8.95431 0 20 0H53C64.0457 0 73 8.95431 73 20V53C73 64.0457 64.0457 73 53 73H20C8.95431 73 0 64.0457 0 53V20Z" fill="#D9D9D9" fill-opacity="0.12" shape-rendering="crispEdges"/>
</g>
<g id="Vector" filter="url(#filter1_d_457_36)">
<path d="M35.8095 67C32.5868 67 29.8409 64.6604 29.3292 61.4787L29.1688 60.4819C28.879 58.6801 27.609 57.1737 26.0184 56.2789C25.9581 56.245 25.8978 56.2109 25.8375 56.1765C23.8309 55.0321 21.402 54.762 19.3004 55.721C16.2321 57.1211 12.6025 55.9437 10.9404 53.0089L9.85651 51.095C8.2289 48.2211 9.01602 44.5835 11.6861 42.6395L13.8942 41.0319C14.6456 40.4849 14.9839 39.5424 14.9417 38.6139C14.9164 38.0566 14.9037 37.525 14.9037 37.019C14.9037 36.5889 14.9164 36.0765 14.9417 35.482C14.9849 34.469 14.6066 33.4488 13.787 32.8521L11.7363 31.3591C9.03854 29.395 8.24558 25.7183 9.89396 22.8169L11.0152 20.8433C12.6354 17.9914 16.1656 16.8494 19.1492 18.2119L19.7327 18.4784C21.589 19.3262 23.7558 19.005 25.5244 17.9867C27.3751 16.9212 28.909 15.2317 29.2442 13.1226L29.3353 12.5489C29.8433 9.35272 32.5995 7 35.8358 7H38.1083C41.3783 7 44.1646 9.37397 44.6839 12.6025L44.7597 13.0737C45.0951 15.159 46.5497 16.8725 48.3996 17.8918C50.2176 18.8936 52.4239 19.3053 54.3134 18.4461L54.9614 18.1514C57.8836 16.8225 61.337 17.9428 62.9227 20.734L64.0288 22.681C65.7158 25.6503 64.8793 29.4147 62.0936 31.3902L60.0752 32.8216C59.2652 33.396 58.8591 34.3773 58.9253 35.3681C58.9633 35.9374 58.9823 36.4877 58.9823 37.019C58.9823 37.5503 58.9633 38.0923 58.9253 38.6452C58.8589 39.61 59.2518 40.5669 60.0399 41.1275L62.0882 42.5845C64.8574 44.5542 65.6892 48.2986 64.0146 51.2556L62.9222 53.1845C61.3165 56.0196 57.8097 57.1567 54.8458 55.8031L54.1885 55.503C52.3619 54.6688 50.2312 55.004 48.5147 56.0461C46.6456 57.1808 45.0856 58.9001 44.7384 61.0589L44.6737 61.4611C44.1603 64.653 41.4056 67 38.1727 67H35.8095ZM33.2559 59.3421C33.4888 61.2231 35.087 62.6357 36.9823 62.6357C38.8695 62.6357 40.4635 61.235 40.7061 59.3635L40.9044 57.8335C41.1965 55.5805 42.883 53.8132 44.9281 52.8239C45.3023 52.6429 45.67 52.4488 46.0312 52.2415C46.3935 52.0336 46.7486 51.8132 47.0963 51.5804C48.9972 50.3076 51.3969 49.766 53.4939 50.6804L55.2311 51.438C56.8627 52.1494 58.7678 51.5045 59.6316 49.9482C60.4764 48.426 60.0563 46.5129 58.6514 45.4848L55.9984 43.5433C54.7374 42.6205 54.1417 41.0484 54.4034 39.5079C54.5428 38.6876 54.6124 37.855 54.6124 37.0099C54.6124 36.1557 54.5617 35.3238 54.4604 34.5142C54.2694 32.9877 54.7545 31.4027 55.9944 30.492L58.6726 28.5248C60.0684 27.4995 60.4906 25.5999 59.6605 24.0799C58.803 22.5098 56.8895 21.8529 55.2484 22.5652L53.5963 23.2822C51.4564 24.211 49.0077 23.5934 47.0992 22.2518C46.7811 22.0282 46.4546 21.8146 46.1197 21.611C45.8085 21.4218 45.4918 21.2471 45.1696 21.0867C43.0643 20.0392 41.1877 18.2891 40.897 15.9557L40.7374 14.6752C40.5018 12.7839 38.8943 11.3643 36.9884 11.3643C35.0762 11.3643 33.4655 12.7931 33.2374 14.6917L33.069 16.094C32.7952 18.3739 31.0549 20.1357 28.9697 21.0974C28.5755 21.2792 28.1934 21.4757 27.8233 21.6869C27.4662 21.8907 27.1155 22.1097 26.7712 22.344C24.8723 23.6362 22.4668 24.2185 20.3646 23.2931L18.7327 22.5747C17.0999 21.856 15.1883 22.4953 14.3165 24.0517C13.4593 25.582 13.8817 27.5116 15.2999 28.5437L17.8436 30.395C19.1259 31.3283 19.704 32.9329 19.4636 34.5005C19.3369 35.3262 19.2736 36.1523 19.2736 36.9787C19.2736 37.8405 19.3306 38.6825 19.4446 39.5047C19.6618 41.0713 19.0927 42.6714 17.8163 43.6054L15.2918 45.4525C13.8768 46.4879 13.4558 48.4158 14.3103 49.9468C15.1802 51.5052 17.09 52.1503 18.7267 51.4385L20.4273 50.699C22.5056 49.7951 24.8815 50.3259 26.7659 51.585C27.1422 51.8365 27.5264 52.0729 27.9183 52.2941C28.2949 52.5067 28.6788 52.7054 29.0698 52.8901C31.1157 53.8564 32.7952 55.6209 33.0732 57.8664L33.2559 59.3421ZM36.9226 46.6964C39.5979 46.6964 41.8788 45.7533 43.7651 43.8672C45.6515 41.981 46.5947 39.6976 46.5947 37.0171C46.5947 34.3365 45.6506 32.0538 43.7624 30.1689C41.8742 28.284 39.5884 27.3416 36.905 27.3416C34.1944 27.3416 31.9018 28.2846 30.0272 30.1708C28.1526 32.057 27.2153 34.3403 27.2153 37.0209C27.2153 39.7015 28.1526 41.9842 30.0272 43.8691C31.9018 45.754 34.2003 46.6964 36.9226 46.6964Z" fill="#EF4444"/>
</g>
</g>
<defs>
<filter id="filter0_d_457_36" x="0" y="0" width="81" height="81" filterUnits="userSpaceOnUse" color-interpolation-filters="sRGB">
<feFlood flood-opacity="0" result="BackgroundImageFix"/>
<feColorMatrix in="SourceAlpha" type="matrix" values="0 0 0 0 0 0 0 0 0 0 0 0 0 0 0 0 0 0 127 0" result="hardAlpha"/>
<feOffset dx="4" dy="4"/>
<feGaussianBlur stdDeviation="2"/>
<feComposite in2="hardAlpha" operator="out"/>
<feColorMatrix type="matrix" values="0 0 0 0 0 0 0 0 0 0 0 0 0 0 0 0 0 0 0.25 0"/>
<feBlend mode="normal" in2="BackgroundImageFix" result="effect1_dropShadow_457_36"/>
<feBlend mode="normal" in="SourceGraphic" in2="effect1_dropShadow_457_36" result="shape"/>
</filter>
<filter id="filter1_d_457_36" x="9.01221" y="7" width="63.8853" height="68" filterUnits="userSpaceOnUse" color-interpolation-filters="sRGB">
<feFlood flood-opacity="0" result="BackgroundImageFix"/>
<feColorMatrix in="SourceAlpha" type="matrix" values="0 0 0 0 0 0 0 0 0 0 0 0 0 0 0 0 0 0 127 0" result="hardAlpha"/>
<feOffset dx="4" dy="4"/>
<feGaussianBlur stdDeviation="2"/>
<feComposite in2="hardAlpha" operator="out"/>
<feColorMatrix type="matrix" values="0 0 0 0 0 0 0 0 0 0 0 0 0 0 0 0 0 0 0.25 0"/>
<feBlend mode="normal" in2="BackgroundImageFix" result="effect1_dropShadow_457_36"/>
<feBlend mode="normal" in="SourceGraphic" in2="effect1_dropShadow_457_36" result="shape"/>
</filter>
</defs>
</svg>
